<svg xmlns="http://www.w3.org/2000/svg" xmlns:xlink="http://www.w3.org/1999/xlink" width="500" zoomAndPan="magnify" viewBox="0 0 375 225" height="300" preserveAspectRatio="xMidYMid meet" version="1.0"><defs><g/></defs><rect x="-37.5" width="450" fill="#ffffff" y="-22.5" height="270" fill-opacity="1"/><rect x="-37.5" width="450" fill="#ffffff" y="-22.5" height="270" fill-opacity="1"/><rect x="-37.5" width="450" fill="#ffffff" y="-22.5" height="270" fill-opacity="1"/><g fill="#000000" fill-opacity="1"><g transform="translate(142.621284, 114.599999)"><g><path d="M 5.496094 -11.011719 C 5.625 -9.851562 4.757812 -4.117188 5.171875 -2.777344 C 5.378906 -2.015625 5.847656 -1.445312 6.703125 -1.5625 C 6.761719 -1.574219 7.007812 -1.6875 6.894531 -1.75 C 5.195312 -2.789062 6.679688 -8.757812 6.542969 -11.257812 C 6.472656 -11.699219 5.652344 -12.261719 5.3125 -11.949219 C 4.855469 -11.539062 4.574219 -10.609375 4.445312 -10.203125 C 4.058594 -8.984375 3.703125 -7.667969 3.585938 -6.367188 C 3.550781 -6.527344 3.527344 -6.695312 3.507812 -6.859375 C 3.449219 -7.558594 3.550781 -8.253906 3.660156 -8.945312 C 3.714844 -9.296875 3.773438 -9.640625 3.8125 -9.992188 C 3.847656 -10.285156 3.929688 -10.46875 3.835938 -10.753906 C 3.683594 -11.234375 2.964844 -11.5 2.582031 -11.246094 C 2.332031 -11.078125 1.617188 -9.378906 1.136719 -7.796875 C 1.066406 -7.574219 1.007812 -7.359375 0.949219 -7.136719 C 0.976562 -7.527344 1.019531 -7.917969 1.070312 -8.316406 C 1.128906 -8.78125 1.292969 -9.464844 1.304688 -9.839844 C 1.316406 -10.1875 0.425781 -10.117188 0.28125 -9.835938 C 0.0273438 -9.429688 -0.164062 -7.28125 -0.199219 -6.683594 C -0.234375 -6.121094 -0.238281 -5.554688 -0.203125 -4.992188 C -0.1875 -4.691406 -0.152344 -4.398438 -0.109375 -4.105469 C -0.0585938 -3.753906 -0.0390625 -3.714844 0.273438 -3.539062 C 0.425781 -3.449219 0.703125 -3.46875 0.835938 -3.585938 C 1.089844 -3.8125 1.042969 -3.890625 0.996094 -4.210938 C 0.976562 -4.316406 0.964844 -4.421875 0.960938 -4.527344 C 1.160156 -5.554688 1.371094 -6.574219 1.664062 -7.570312 C 1.832031 -8.136719 2.03125 -8.699219 2.261719 -9.242188 C 2.367188 -9.488281 2.472656 -9.742188 2.601562 -9.96875 C 2.636719 -10.035156 2.683594 -10.117188 2.734375 -10.199219 C 2.636719 -9.335938 2.472656 -7.859375 2.460938 -7.316406 C 2.4375 -6.167969 2.578125 -5.113281 3.695312 -5.089844 C 3.789062 -5.089844 3.90625 -5.113281 3.984375 -5.171875 C 4.042969 -5.203125 4.089844 -5.242188 4.09375 -5.289062 C 4.292969 -6.433594 4.398438 -7.574219 4.679688 -8.703125 C 4.808594 -9.207031 4.945312 -9.710938 5.121094 -10.203125 C 5.226562 -10.503906 5.332031 -10.761719 5.496094 -11.011719 Z M 5.496094 -11.011719 "/></g></g></g><g fill="#000000" fill-opacity="1"><g transform="translate(150.258924, 114.599999)"><g><path d="M 4.691406 -8.246094 C 4.574219 -7.445312 4.375 -6.671875 4.054688 -5.933594 C 3.902344 -5.582031 3.730469 -5.242188 3.515625 -4.925781 C 3.449219 -4.820312 3.375 -4.722656 3.292969 -4.621094 C 3.269531 -4.699219 3.246094 -4.78125 3.238281 -4.863281 C 2.921875 -6.472656 3.070312 -8.160156 3.191406 -9.789062 C 3.210938 -10.046875 2.753906 -10.121094 2.417969 -10.035156 C 2.402344 -10.058594 2.390625 -10.074219 2.371094 -10.09375 C 1.960938 -10.542969 1.152344 -10.503906 0.703125 -10.140625 C 0.109375 -9.671875 -0.15625 -8.722656 -0.34375 -8.03125 C -0.5625 -7.222656 -0.660156 -6.398438 -0.613281 -5.566406 C -0.578125 -4.933594 -0.503906 -4.089844 0.175781 -3.820312 C 0.949219 -3.519531 1.441406 -4.101562 1.726562 -4.738281 C 1.832031 -4.972656 1.925781 -5.21875 2.003906 -5.472656 C 2.0625 -4.832031 2.230469 -4.175781 2.804688 -4.019531 C 3.75 -3.761719 4.058594 -4.628906 4.3125 -5.335938 C 4.644531 -6.269531 4.832031 -7.257812 4.949219 -8.234375 C 4.957031 -8.289062 4.699219 -8.304688 4.691406 -8.246094 Z M 1.5 -6.738281 C 1.382812 -6.308594 1.257812 -5.882812 1.105469 -5.464844 C 1.042969 -5.296875 0.871094 -4.796875 0.667969 -4.511719 C 0.597656 -4.699219 0.554688 -4.9375 0.542969 -5.03125 C 0.492188 -5.347656 0.480469 -5.675781 0.480469 -6 C 0.480469 -6.71875 0.585938 -7.445312 0.796875 -8.136719 C 0.890625 -8.453125 1.007812 -8.761719 1.148438 -9.066406 C 1.210938 -9.214844 1.28125 -9.359375 1.359375 -9.496094 C 1.40625 -9.578125 1.453125 -9.664062 1.511719 -9.753906 C 1.546875 -9.707031 1.585938 -9.660156 1.617188 -9.613281 C 1.703125 -9.488281 1.769531 -9.347656 1.84375 -9.21875 C 1.886719 -9.144531 1.921875 -9.066406 1.949219 -8.992188 C 1.828125 -8.234375 1.710938 -7.476562 1.5 -6.738281 Z M 1.5 -6.738281 "/></g></g></g><g fill="#000000" fill-opacity="1"><g transform="translate(154.985593, 114.599999)"><g><path d="M 5.382812 -8.3125 C 5.019531 -6.902344 4.503906 -5.660156 3.632812 -4.597656 C 3.648438 -5.066406 3.660156 -5.53125 3.679688 -6 C 3.71875 -7.476562 3.832031 -8.746094 3.785156 -10.222656 C 3.773438 -10.597656 2.777344 -10.789062 2.742188 -10.414062 C 2.660156 -9.496094 2.613281 -8.5625 2.589844 -7.632812 C 2.507812 -7.257812 2.414062 -6.890625 2.289062 -6.53125 C 2.144531 -6.117188 1.980469 -5.695312 1.75 -5.3125 C 1.574219 -5.015625 1.207031 -4.476562 1.136719 -4.5 C 0.761719 -4.746094 0.742188 -5.371094 0.71875 -5.765625 C 0.695312 -6.285156 0.683594 -6.808594 0.683594 -7.335938 C 0.679688 -7.890625 0.777344 -9.511719 0.789062 -10.070312 C 0.8125 -10.714844 -0.121094 -10.925781 -0.226562 -10.449219 C -0.332031 -10.015625 -0.375 -9.207031 -0.390625 -8.609375 C -0.414062 -7.867188 -0.414062 -7.125 -0.390625 -6.378906 C -0.363281 -5.335938 -0.292969 -3.988281 1.023438 -3.855469 C 1.558594 -3.730469 2.160156 -4.652344 2.546875 -5.507812 C 2.535156 -4.828125 2.523438 -4.152344 2.507812 -3.480469 C 1.382812 -2.53125 0.152344 -1.617188 -0.574219 -0.304688 C -1 0.472656 -1.230469 1.441406 -0.796875 2.265625 C -0.425781 2.980469 0.332031 3.246094 1.101562 3.144531 C 2.125 3.011719 2.804688 2.4375 3.167969 1.464844 C 3.527344 0.503906 3.515625 -0.550781 3.542969 -1.558594 C 3.566406 -2.367188 3.589844 -3.175781 3.613281 -3.984375 C 4.828125 -5.167969 5.367188 -6.625 5.941406 -8.246094 C 6.015625 -8.464844 5.4375 -8.5 5.382812 -8.3125 Z M 2.402344 -0.261719 C 2.34375 0.613281 2.191406 1.605469 1.558594 2.265625 C 1.175781 2.660156 0.753906 3.074219 0.179688 2.753906 C -0.210938 2.53125 -0.449219 2.078125 -0.53125 1.644531 C -0.71875 0.644531 -0.152344 -0.34375 0.457031 -1.089844 C 1.058594 -1.808594 1.773438 -2.40625 2.488281 -3.003906 C 2.472656 -2.089844 2.460938 -1.175781 2.402344 -0.261719 Z M 2.402344 -0.261719 "/></g></g></g><g fill="#000000" fill-opacity="1"><g transform="translate(160.608396, 114.599999)"><g><path d="M 4.691406 -8.246094 C 4.574219 -7.445312 4.375 -6.671875 4.054688 -5.933594 C 3.902344 -5.582031 3.730469 -5.242188 3.515625 -4.925781 C 3.449219 -4.820312 3.375 -4.722656 3.292969 -4.621094 C 3.269531 -4.699219 3.246094 -4.78125 3.238281 -4.863281 C 2.921875 -6.472656 3.070312 -8.160156 3.191406 -9.789062 C 3.210938 -10.046875 2.753906 -10.121094 2.417969 -10.035156 C 2.402344 -10.058594 2.390625 -10.074219 2.371094 -10.09375 C 1.960938 -10.542969 1.152344 -10.503906 0.703125 -10.140625 C 0.109375 -9.671875 -0.15625 -8.722656 -0.34375 -8.03125 C -0.5625 -7.222656 -0.660156 -6.398438 -0.613281 -5.566406 C -0.578125 -4.933594 -0.503906 -4.089844 0.175781 -3.820312 C 0.949219 -3.519531 1.441406 -4.101562 1.726562 -4.738281 C 1.832031 -4.972656 1.925781 -5.21875 2.003906 -5.472656 C 2.0625 -4.832031 2.230469 -4.175781 2.804688 -4.019531 C 3.75 -3.761719 4.058594 -4.628906 4.3125 -5.335938 C 4.644531 -6.269531 4.832031 -7.257812 4.949219 -8.234375 C 4.957031 -8.289062 4.699219 -8.304688 4.691406 -8.246094 Z M 1.5 -6.738281 C 1.382812 -6.308594 1.257812 -5.882812 1.105469 -5.464844 C 1.042969 -5.296875 0.871094 -4.796875 0.667969 -4.511719 C 0.597656 -4.699219 0.554688 -4.9375 0.542969 -5.03125 C 0.492188 -5.347656 0.480469 -5.675781 0.480469 -6 C 0.480469 -6.71875 0.585938 -7.445312 0.796875 -8.136719 C 0.890625 -8.453125 1.007812 -8.761719 1.148438 -9.066406 C 1.210938 -9.214844 1.28125 -9.359375 1.359375 -9.496094 C 1.40625 -9.578125 1.453125 -9.664062 1.511719 -9.753906 C 1.546875 -9.707031 1.585938 -9.660156 1.617188 -9.613281 C 1.703125 -9.488281 1.769531 -9.347656 1.84375 -9.21875 C 1.886719 -9.144531 1.921875 -9.066406 1.949219 -8.992188 C 1.828125 -8.234375 1.710938 -7.476562 1.5 -6.738281 Z M 1.5 -6.738281 "/></g></g></g><g fill="#000000" fill-opacity="1"><g transform="translate(165.335064, 114.599999)"><g/></g></g><g fill="#000000" fill-opacity="1"><g transform="translate(168.281179, 114.599999)"><g><path d="M 2.378906 -7.257812 C 2.894531 -8.125 3.761719 -10.878906 1.957031 -10.871094 C 0.355469 -10.867188 -0.285156 -8.632812 -0.355469 -7.375 C -0.402344 -6.597656 -0.402344 -5.675781 -0.0703125 -4.957031 C 0.273438 -4.21875 1.011719 -3.867188 1.804688 -3.925781 C 2.640625 -3.984375 3.355469 -4.757812 3.832031 -5.757812 C 4.207031 -6.539062 4.546875 -7.46875 4.691406 -8.09375 C 4.746094 -8.324219 4.445312 -8.339844 4.40625 -8.101562 C 4.292969 -7.488281 3.773438 -6.316406 3.613281 -6.050781 C 3.246094 -5.449219 2.675781 -4.546875 1.921875 -4.574219 C 1.054688 -4.609375 0.785156 -5.453125 0.726562 -6.308594 C 0.773438 -6.304688 0.820312 -6.292969 0.867188 -6.292969 C 1.550781 -6.234375 2.050781 -6.707031 2.378906 -7.257812 Z M 0.714844 -6.75 C 0.714844 -7.222656 0.761719 -7.65625 0.785156 -7.90625 C 0.949219 -9.578125 1.738281 -10.601562 2.089844 -10.398438 C 2.371094 -10.238281 2.378906 -9.6875 2.371094 -9.417969 C 2.359375 -8.714844 2.144531 -8.011719 1.796875 -7.398438 C 1.617188 -7.082031 1.257812 -6.46875 0.789062 -6.703125 C 0.761719 -6.714844 0.738281 -6.730469 0.714844 -6.75 Z M 0.714844 -6.75 "/></g></g></g><g fill="#000000" fill-opacity="1"><g transform="translate(172.732564, 114.599999)"><g><path d="M 3.648438 -7.757812 C 3.707031 -7.996094 3.460938 -8.148438 3.367188 -7.867188 C 3.222656 -7.441406 2.640625 -4.148438 1.921875 -4.113281 C 1.675781 -4.101562 1.585938 -4.21875 1.464844 -4.417969 C 1.265625 -4.746094 1.136719 -5.121094 1.035156 -5.488281 C 0.832031 -6.308594 0.773438 -7.183594 0.761719 -8.019531 C 0.753906 -8.429688 0.761719 -9.15625 0.785156 -9.566406 C 2.523438 -11.84375 3.503906 -15.488281 2.765625 -16.300781 C 2.53125 -16.558594 2.261719 -16.636719 1.945312 -16.523438 C 1.59375 -16.40625 1.136719 -15.949219 0.554688 -14.316406 C -0.140625 -12.347656 -0.386719 -10.074219 -0.34375 -7.996094 C -0.316406 -6.679688 -0.175781 -3.179688 1.902344 -3.480469 C 2.847656 -3.613281 3.199219 -5.742188 3.648438 -7.757812 Z M 1.300781 -13.085938 C 1.453125 -13.878906 2.007812 -15.980469 2.484375 -16.125 C 3.203125 -15.085938 1.289062 -10.917969 0.894531 -10.554688 C 0.996094 -11.40625 1.136719 -12.25 1.300781 -13.085938 Z M 1.300781 -13.085938 "/></g></g></g><g fill="#000000" fill-opacity="1"><g transform="translate(176.088675, 114.599999)"><g><path d="M -0.164062 -8.363281 C -0.179688 -7.769531 -0.203125 -7.171875 -0.222656 -6.578125 C -0.25 -5.710938 -0.332031 -4.421875 0.445312 -3.824219 C 0.636719 -3.683594 0.859375 -3.609375 1.082031 -3.609375 C 2.453125 -3.609375 2.933594 -6.273438 3.15625 -7.535156 C 3.175781 -7.664062 2.929688 -7.6875 2.910156 -7.5625 C 2.769531 -6.726562 2.179688 -4.113281 1.394531 -4.128906 C 1.089844 -4.136719 0.960938 -4.878906 0.925781 -5.097656 C 0.789062 -5.910156 0.878906 -6.761719 0.90625 -7.582031 C 0.917969 -7.996094 0.988281 -9.125 0.972656 -9.546875 C 0.972656 -9.566406 0.972656 -9.589844 0.972656 -9.605469 C 1.222656 -9.625 1.328125 -9.675781 1.324219 -9.8125 C 1.316406 -9.992188 0.917969 -10.074219 0.414062 -10.074219 C -0.0859375 -10.074219 -0.496094 -10.050781 -0.496094 -9.8125 C -0.496094 -9.660156 -0.304688 -9.601562 -0.0976562 -9.59375 C -0.0976562 -9.578125 -0.105469 -9.554688 -0.105469 -9.535156 C -0.105469 -9.238281 -0.152344 -8.664062 -0.164062 -8.363281 Z M 1.40625 -11.058594 C 1.40625 -11.289062 1.054688 -11.488281 0.613281 -11.492188 C 0.175781 -11.5 -0.1875 -11.316406 -0.1875 -11.082031 C -0.191406 -10.847656 0.15625 -10.65625 0.601562 -10.648438 C 1.042969 -10.644531 1.398438 -10.824219 1.40625 -11.058594 Z M 1.40625 -11.058594 "/></g></g></g><g fill="#000000" fill-opacity="1"><g transform="translate(179.069931, 114.599999)"><g><path d="M 5.742188 -7.738281 C 5.800781 -7.914062 5.367188 -7.953125 5.3125 -7.792969 C 5.015625 -6.789062 4.539062 -5.921875 4 -5.109375 C 3.542969 -5.613281 2.910156 -5.742188 2.308594 -5.601562 C 2.394531 -5.804688 2.476562 -6.015625 2.546875 -6.234375 C 2.894531 -7.21875 3.199219 -8.621094 2.789062 -9.640625 C 2.417969 -10.585938 1.328125 -10.574219 0.65625 -9.839844 C 0.363281 -9.519531 -0.222656 -8.398438 -0.222656 -7.738281 C -0.222656 -7.550781 0.0625 -7.394531 0.152344 -7.46875 C 0.152344 -7.46875 0.796875 -8.832031 1.164062 -9.308594 C 1.257812 -9.429688 1.46875 -9.625 1.617188 -9.652344 C 1.773438 -9.707031 1.890625 -9.394531 1.914062 -9.289062 C 2.007812 -8.878906 2.007812 -8.417969 1.972656 -7.988281 C 1.898438 -7.066406 1.59375 -6.191406 1.207031 -5.378906 C 1.023438 -4.984375 0.8125 -4.597656 0.597656 -4.222656 C 0.425781 -3.929688 0.117188 -3.625 0.226562 -3.261719 C 0.304688 -3.039062 0.691406 -3.117188 0.820312 -3.179688 C 1.148438 -3.351562 1.375 -3.75 1.574219 -4.136719 C 1.796875 -4.371094 2.019531 -4.605469 2.300781 -4.816406 C 2.648438 -5.074219 2.921875 -5.109375 3.210938 -4.746094 C 3.316406 -4.617188 3.398438 -4.46875 3.457031 -4.316406 C 3.09375 -3.824219 2.722656 -3.339844 2.359375 -2.847656 C 1.769531 -2.042969 1.222656 -1.210938 0.738281 -0.328125 C 0.484375 0.152344 0.238281 0.636719 0.0585938 1.152344 C -0.0820312 1.523438 -0.234375 1.9375 -0.179688 2.347656 C -0.0859375 3.128906 0.648438 3.070312 1.160156 2.859375 C 1.945312 2.523438 2.613281 1.832031 3.117188 1.082031 C 3.671875 0.238281 4.066406 -0.785156 4.3125 -1.804688 C 4.535156 -2.699219 4.75 -3.796875 4.304688 -4.65625 C 4.269531 -4.714844 4.242188 -4.773438 4.210938 -4.828125 C 4.820312 -5.722656 5.359375 -6.667969 5.742188 -7.738281 Z M 3.589844 -3.578125 C 3.667969 -1.914062 2.273438 2.25 0.648438 2.578125 C -0.292969 2.765625 0.519531 0.941406 0.703125 0.527344 C 1.371094 -0.972656 2.324219 -2.277344 3.285156 -3.542969 C 3.378906 -3.667969 3.46875 -3.789062 3.554688 -3.914062 C 3.578125 -3.800781 3.589844 -3.691406 3.589844 -3.578125 Z M 3.589844 -3.578125 "/></g></g></g><g fill="#000000" fill-opacity="1"><g transform="translate(184.575593, 114.599999)"><g><path d="M 4.691406 -8.246094 C 4.574219 -7.445312 4.375 -6.671875 4.054688 -5.933594 C 3.902344 -5.582031 3.730469 -5.242188 3.515625 -4.925781 C 3.449219 -4.820312 3.375 -4.722656 3.292969 -4.621094 C 3.269531 -4.699219 3.246094 -4.78125 3.238281 -4.863281 C 2.921875 -6.472656 3.070312 -8.160156 3.191406 -9.789062 C 3.210938 -10.046875 2.753906 -10.121094 2.417969 -10.035156 C 2.402344 -10.058594 2.390625 -10.074219 2.371094 -10.09375 C 1.960938 -10.542969 1.152344 -10.503906 0.703125 -10.140625 C 0.109375 -9.671875 -0.15625 -8.722656 -0.34375 -8.03125 C -0.5625 -7.222656 -0.660156 -6.398438 -0.613281 -5.566406 C -0.578125 -4.933594 -0.503906 -4.089844 0.175781 -3.820312 C 0.949219 -3.519531 1.441406 -4.101562 1.726562 -4.738281 C 1.832031 -4.972656 1.925781 -5.21875 2.003906 -5.472656 C 2.0625 -4.832031 2.230469 -4.175781 2.804688 -4.019531 C 3.75 -3.761719 4.058594 -4.628906 4.3125 -5.335938 C 4.644531 -6.269531 4.832031 -7.257812 4.949219 -8.234375 C 4.957031 -8.289062 4.699219 -8.304688 4.691406 -8.246094 Z M 1.5 -6.738281 C 1.382812 -6.308594 1.257812 -5.882812 1.105469 -5.464844 C 1.042969 -5.296875 0.871094 -4.796875 0.667969 -4.511719 C 0.597656 -4.699219 0.554688 -4.9375 0.542969 -5.03125 C 0.492188 -5.347656 0.480469 -5.675781 0.480469 -6 C 0.480469 -6.71875 0.585938 -7.445312 0.796875 -8.136719 C 0.890625 -8.453125 1.007812 -8.761719 1.148438 -9.066406 C 1.210938 -9.214844 1.28125 -9.359375 1.359375 -9.496094 C 1.40625 -9.578125 1.453125 -9.664062 1.511719 -9.753906 C 1.546875 -9.707031 1.585938 -9.660156 1.617188 -9.613281 C 1.703125 -9.488281 1.769531 -9.347656 1.84375 -9.21875 C 1.886719 -9.144531 1.921875 -9.066406 1.949219 -8.992188 C 1.828125 -8.234375 1.710938 -7.476562 1.5 -6.738281 Z M 1.5 -6.738281 "/></g></g></g><g fill="#000000" fill-opacity="1"><g transform="translate(189.302261, 114.599999)"><g><path d="M 6.507812 -7.246094 C 6.765625 -7.277344 6.785156 -7.574219 6.457031 -7.5625 C 5.886719 -7.546875 5.324219 -7.363281 4.804688 -7.082031 C 4.785156 -7.382812 4.757812 -7.6875 4.703125 -7.984375 C 4.574219 -8.714844 4.207031 -9.347656 3.390625 -9.394531 C 2.484375 -9.449219 1.992188 -8.726562 1.597656 -8.011719 C 1.195312 -7.28125 0.949219 -6.472656 0.796875 -5.648438 C 0.785156 -6.082031 0.777344 -6.507812 0.785156 -6.941406 C 0.789062 -7.453125 0.800781 -7.960938 0.824219 -8.46875 C 1.582031 -9.542969 2.125 -10.808594 2.496094 -12.042969 C 2.6875 -12.71875 3.117188 -14.515625 2.789062 -14.933594 C 2.648438 -15.109375 2.378906 -15.136719 2.160156 -15.113281 C 1.597656 -15.042969 1.171875 -14.46875 0.917969 -14.019531 C 0.554688 -13.378906 0.355469 -12.628906 0.1875 -11.921875 C -0.191406 -10.269531 -0.292969 -8.527344 -0.296875 -6.84375 C -0.304688 -5.871094 -0.269531 -4.890625 -0.175781 -3.925781 C -0.0976562 -3.152344 0.00390625 -2.207031 0.542969 -1.605469 C 0.683594 -1.445312 1.558594 -1.417969 1.476562 -1.746094 C 1.316406 -2.390625 1.359375 -3.082031 1.382812 -3.742188 C 1.40625 -4.429688 1.457031 -5.113281 1.585938 -5.792969 C 1.714844 -6.460938 1.925781 -7.113281 2.242188 -7.714844 C 2.390625 -8.007812 2.566406 -8.289062 2.78125 -8.535156 C 2.847656 -8.605469 3.121094 -8.921875 3.25 -8.886719 C 3.304688 -8.875 3.421875 -8.65625 3.449219 -8.605469 C 3.761719 -8.046875 3.730469 -7.28125 3.726562 -6.660156 C 3.726562 -6.550781 3.71875 -6.433594 3.714844 -6.316406 C 3.425781 -6.0625 3.167969 -5.789062 2.945312 -5.507812 C 2.425781 -4.855469 1.984375 -4 2.015625 -3.144531 C 2.039062 -2.382812 2.792969 -2.085938 3.4375 -2.449219 C 4.171875 -2.871094 4.421875 -4.089844 4.59375 -4.84375 C 4.722656 -5.40625 4.796875 -6 4.808594 -6.589844 C 5.324219 -6.929688 5.90625 -7.171875 6.507812 -7.246094 Z M 1.324219 -12.25 C 1.492188 -12.988281 1.714844 -13.878906 2.179688 -14.488281 C 2.230469 -14.5625 2.285156 -14.617188 2.320312 -14.652344 C 2.332031 -14.570312 2.320312 -14.464844 2.320312 -14.328125 C 2.300781 -14.171875 2.296875 -14.011719 2.277344 -13.855469 C 2.242188 -13.4375 2.179688 -13.027344 2.097656 -12.617188 C 1.851562 -11.457031 1.40625 -10.425781 0.890625 -9.402344 C 0.972656 -10.363281 1.105469 -11.316406 1.324219 -12.25 Z M 3.460938 -4.429688 C 3.378906 -4.070312 3.257812 -3.726562 3.144531 -3.378906 C 3.027344 -3.039062 2.8125 -2.824219 2.789062 -2.875 C 2.519531 -3.363281 2.886719 -4.363281 3.203125 -4.898438 C 3.332031 -5.113281 3.484375 -5.332031 3.65625 -5.535156 C 3.609375 -5.167969 3.542969 -4.796875 3.460938 -4.429688 Z M 3.460938 -4.429688 "/></g></g></g><g fill="#000000" fill-opacity="1"><g transform="translate(195.75677, 114.599999)"><g><path d="M 2.378906 -7.257812 C 2.894531 -8.125 3.761719 -10.878906 1.957031 -10.871094 C 0.355469 -10.867188 -0.285156 -8.632812 -0.355469 -7.375 C -0.402344 -6.597656 -0.402344 -5.675781 -0.0703125 -4.957031 C 0.273438 -4.21875 1.011719 -3.867188 1.804688 -3.925781 C 2.640625 -3.984375 3.355469 -4.757812 3.832031 -5.757812 C 4.207031 -6.539062 4.546875 -7.46875 4.691406 -8.09375 C 4.746094 -8.324219 4.445312 -8.339844 4.40625 -8.101562 C 4.292969 -7.488281 3.773438 -6.316406 3.613281 -6.050781 C 3.246094 -5.449219 2.675781 -4.546875 1.921875 -4.574219 C 1.054688 -4.609375 0.785156 -5.453125 0.726562 -6.308594 C 0.773438 -6.304688 0.820312 -6.292969 0.867188 -6.292969 C 1.550781 -6.234375 2.050781 -6.707031 2.378906 -7.257812 Z M 0.714844 -6.75 C 0.714844 -7.222656 0.761719 -7.65625 0.785156 -7.90625 C 0.949219 -9.578125 1.738281 -10.601562 2.089844 -10.398438 C 2.371094 -10.238281 2.378906 -9.6875 2.371094 -9.417969 C 2.359375 -8.714844 2.144531 -8.011719 1.796875 -7.398438 C 1.617188 -7.082031 1.257812 -6.46875 0.789062 -6.703125 C 0.761719 -6.714844 0.738281 -6.730469 0.714844 -6.75 Z M 0.714844 -6.75 "/></g></g></g><g fill="#000000" fill-opacity="1"><g transform="translate(200.208156, 114.599999)"><g><path d="M 1.324219 -13.082031 C 1.382812 -13.074219 1.433594 -13.070312 1.492188 -13.0625 C 1.898438 -13.015625 2.25 -12.988281 2.558594 -12.96875 C 2.871094 -12.953125 3.070312 -12.980469 3.167969 -13.046875 C 3.246094 -13.109375 3.304688 -13.175781 3.332031 -13.238281 C 3.363281 -13.296875 3.378906 -13.355469 3.386719 -13.414062 C 3.390625 -13.46875 3.386719 -13.519531 3.375 -13.5625 C 3.355469 -13.601562 3.34375 -13.632812 3.328125 -13.660156 C 3.320312 -13.667969 3.316406 -13.671875 3.316406 -13.683594 C 3.308594 -13.683594 3.308594 -13.691406 3.308594 -13.691406 C 3.304688 -13.691406 3.304688 -13.691406 3.304688 -13.695312 C 3.058594 -13.53125 2.710938 -13.449219 2.265625 -13.449219 C 1.984375 -13.445312 1.699219 -13.457031 1.40625 -13.472656 C 1.453125 -13.660156 1.511719 -13.878906 1.574219 -14.117188 C 1.691406 -14.546875 1.828125 -14.949219 1.980469 -15.332031 C 2.132812 -15.710938 2.285156 -15.96875 2.441406 -16.101562 C 2.464844 -16.121094 2.476562 -16.148438 2.484375 -16.179688 C 2.484375 -16.207031 2.472656 -16.230469 2.453125 -16.253906 C 2.378906 -16.324219 2.285156 -16.371094 2.171875 -16.394531 C 2.0625 -16.414062 1.945312 -16.40625 1.832031 -16.367188 C 1.664062 -16.296875 1.480469 -16.113281 1.277344 -15.820312 C 1.070312 -15.53125 0.84375 -15.027344 0.585938 -14.3125 C 0.496094 -14.058594 0.421875 -13.808594 0.34375 -13.554688 C 0.167969 -13.5625 0.00390625 -13.566406 -0.140625 -13.574219 C -0.4375 -13.574219 -0.644531 -13.527344 -0.75 -13.425781 C -0.777344 -13.386719 -0.800781 -13.332031 -0.808594 -13.28125 C -0.820312 -13.222656 -0.824219 -13.167969 -0.820312 -13.128906 C -0.8125 -13.085938 -0.808594 -13.0625 -0.789062 -13.070312 C -0.578125 -13.15625 -0.261719 -13.191406 0.164062 -13.175781 C 0.1875 -13.175781 0.214844 -13.175781 0.238281 -13.167969 C 0.0742188 -12.53125 -0.0507812 -11.875 -0.132812 -11.207031 C -0.273438 -10.121094 -0.332031 -9.0625 -0.308594 -8.019531 C -0.308594 -7.675781 -0.285156 -7.246094 -0.238281 -6.726562 C -0.199219 -6.203125 -0.105469 -5.683594 0.0390625 -5.171875 C 0.1875 -4.65625 0.410156 -4.242188 0.707031 -3.917969 C 1.007812 -3.597656 1.417969 -3.46875 1.925781 -3.527344 C 2.203125 -3.574219 2.429688 -3.773438 2.625 -4.117188 C 2.816406 -4.464844 2.980469 -4.898438 3.121094 -5.429688 C 3.261719 -5.957031 3.398438 -6.527344 3.519531 -7.128906 C 3.566406 -7.347656 3.613281 -7.5625 3.660156 -7.78125 C 3.679688 -7.859375 3.671875 -7.925781 3.636719 -7.976562 C 3.601562 -8.023438 3.5625 -8.042969 3.507812 -8.035156 C 3.457031 -8.03125 3.414062 -7.976562 3.386719 -7.890625 C 3.355469 -7.792969 3.304688 -7.605469 3.238281 -7.324219 C 3.15625 -6.949219 3.050781 -6.519531 2.921875 -6.035156 C 2.792969 -5.546875 2.648438 -5.121094 2.484375 -4.75 C 2.3125 -4.382812 2.136719 -4.183594 1.945312 -4.152344 C 1.820312 -4.148438 1.734375 -4.175781 1.667969 -4.230469 C 1.605469 -4.28125 1.546875 -4.359375 1.488281 -4.457031 C 1.292969 -4.792969 1.152344 -5.148438 1.058594 -5.523438 C 0.867188 -6.355469 0.773438 -7.195312 0.789062 -8.042969 C 0.820312 -9.371094 0.859375 -10.210938 0.925781 -10.566406 C 1.023438 -11.410156 1.160156 -12.25 1.324219 -13.082031 Z M 1.324219 -13.082031 "/></g></g></g><g fill="#000000" fill-opacity="1"><g transform="translate(203.564266, 114.599999)"><g><path d="M 6.09375 -7.914062 C 6.003906 -6.46875 5.710938 -5.121094 5.191406 -3.765625 C 5.074219 -3.449219 4.957031 -3.121094 4.773438 -2.835938 C 4.65625 -2.636719 4.652344 -2.535156 4.515625 -2.777344 C 4.410156 -2.953125 4.359375 -3.164062 4.324219 -3.367188 C 4.1875 -4.066406 4.242188 -4.816406 4.292969 -5.523438 C 4.347656 -6.261719 4.433594 -7.007812 4.480469 -7.75 C 4.515625 -8.28125 4.710938 -9.230469 4.28125 -9.664062 C 3.996094 -9.957031 3.421875 -9.988281 3.09375 -9.734375 C 2.675781 -9.402344 2.414062 -8.796875 2.226562 -8.3125 C 1.933594 -7.574219 1.699219 -6.8125 1.527344 -6.035156 C 1.441406 -5.652344 1.382812 -5.261719 1.3125 -4.875 C 1.289062 -4.746094 1.265625 -4.574219 1.222656 -4.398438 C 1.21875 -4.441406 1.210938 -4.476562 1.199219 -4.511719 C 1.125 -4.886719 1.054688 -5.265625 0.996094 -5.648438 C 0.882812 -6.386719 0.808594 -7.125 0.765625 -7.867188 C 0.753906 -8.164062 0.742188 -8.46875 0.738281 -8.773438 C 2.851562 -11.851562 3.375 -15.578125 2.570312 -16.570312 C 2.261719 -16.953125 1.609375 -16.777344 1.257812 -16.511719 C 0.695312 -16.085938 -0.28125 -13.011719 -0.351562 -9.449219 C -0.386719 -7.699219 -0.238281 -5.894531 0.179688 -4.1875 C 0.210938 -4.078125 0.238281 -3.964844 0.304688 -3.871094 C 0.433594 -3.671875 0.90625 -3.226562 1.398438 -3.386719 C 1.960938 -3.5625 1.910156 -4.488281 1.96875 -4.960938 C 2.078125 -5.863281 2.261719 -6.75 2.542969 -7.617188 C 2.660156 -7.964844 2.78125 -8.324219 2.945312 -8.65625 C 3.015625 -8.816406 3.097656 -8.96875 3.191406 -9.109375 C 3.234375 -9.171875 3.339844 -9.261719 3.402344 -9.335938 C 3.449219 -7.640625 3.121094 -5.957031 3.15625 -4.253906 C 3.167969 -3.589844 3.199219 -2.511719 3.894531 -2.167969 C 4.535156 -1.851562 5.214844 -2.160156 5.449219 -2.789062 C 6.050781 -4.394531 6.34375 -6.210938 6.410156 -7.917969 C 6.414062 -8.03125 6.097656 -8.03125 6.09375 -7.914062 Z M 0.972656 -12.308594 C 1.035156 -12.734375 1.804688 -16.453125 2.144531 -16.308594 C 2.378906 -16.195312 2.414062 -15.496094 2.429688 -15.265625 C 2.460938 -14.898438 2.425781 -14.535156 2.371094 -14.164062 C 2.265625 -13.4375 2.085938 -12.734375 1.863281 -12.039062 C 1.5625 -11.089844 1.183594 -10.167969 0.738281 -9.277344 C 0.75 -10.292969 0.824219 -11.304688 0.972656 -12.308594 Z M 0.972656 -12.308594 "/></g></g></g><g fill="#000000" fill-opacity="1"><g transform="translate(209.778635, 114.599999)"><g/></g></g><g fill="#000000" fill-opacity="1"><g transform="translate(212.724749, 114.599999)"><g><path d="M 1.324219 -13.082031 C 1.382812 -13.074219 1.433594 -13.070312 1.492188 -13.0625 C 1.898438 -13.015625 2.25 -12.988281 2.558594 -12.96875 C 2.871094 -12.953125 3.070312 -12.980469 3.167969 -13.046875 C 3.246094 -13.109375 3.304688 -13.175781 3.332031 -13.238281 C 3.363281 -13.296875 3.378906 -13.355469 3.386719 -13.414062 C 3.390625 -13.46875 3.386719 -13.519531 3.375 -13.5625 C 3.355469 -13.601562 3.34375 -13.632812 3.328125 -13.660156 C 3.320312 -13.667969 3.316406 -13.671875 3.316406 -13.683594 C 3.308594 -13.683594 3.308594 -13.691406 3.308594 -13.691406 C 3.304688 -13.691406 3.304688 -13.691406 3.304688 -13.695312 C 3.058594 -13.53125 2.710938 -13.449219 2.265625 -13.449219 C 1.984375 -13.445312 1.699219 -13.457031 1.40625 -13.472656 C 1.453125 -13.660156 1.511719 -13.878906 1.574219 -14.117188 C 1.691406 -14.546875 1.828125 -14.949219 1.980469 -15.332031 C 2.132812 -15.710938 2.285156 -15.96875 2.441406 -16.101562 C 2.464844 -16.121094 2.476562 -16.148438 2.484375 -16.179688 C 2.484375 -16.207031 2.472656 -16.230469 2.453125 -16.253906 C 2.378906 -16.324219 2.285156 -16.371094 2.171875 -16.394531 C 2.0625 -16.414062 1.945312 -16.40625 1.832031 -16.367188 C 1.664062 -16.296875 1.480469 -16.113281 1.277344 -15.820312 C 1.070312 -15.53125 0.84375 -15.027344 0.585938 -14.3125 C 0.496094 -14.058594 0.421875 -13.808594 0.34375 -13.554688 C 0.167969 -13.5625 0.00390625 -13.566406 -0.140625 -13.574219 C -0.4375 -13.574219 -0.644531 -13.527344 -0.75 -13.425781 C -0.777344 -13.386719 -0.800781 -13.332031 -0.808594 -13.28125 C -0.820312 -13.222656 -0.824219 -13.167969 -0.820312 -13.128906 C -0.8125 -13.085938 -0.808594 -13.0625 -0.789062 -13.070312 C -0.578125 -13.15625 -0.261719 -13.191406 0.164062 -13.175781 C 0.1875 -13.175781 0.214844 -13.175781 0.238281 -13.167969 C 0.0742188 -12.53125 -0.0507812 -11.875 -0.132812 -11.207031 C -0.273438 -10.121094 -0.332031 -9.0625 -0.308594 -8.019531 C -0.308594 -7.675781 -0.285156 -7.246094 -0.238281 -6.726562 C -0.199219 -6.203125 -0.105469 -5.683594 0.0390625 -5.171875 C 0.1875 -4.65625 0.410156 -4.242188 0.707031 -3.917969 C 1.007812 -3.597656 1.417969 -3.46875 1.925781 -3.527344 C 2.203125 -3.574219 2.429688 -3.773438 2.625 -4.117188 C 2.816406 -4.464844 2.980469 -4.898438 3.121094 -5.429688 C 3.261719 -5.957031 3.398438 -6.527344 3.519531 -7.128906 C 3.566406 -7.347656 3.613281 -7.5625 3.660156 -7.78125 C 3.679688 -7.859375 3.671875 -7.925781 3.636719 -7.976562 C 3.601562 -8.023438 3.5625 -8.042969 3.507812 -8.035156 C 3.457031 -8.03125 3.414062 -7.976562 3.386719 -7.890625 C 3.355469 -7.792969 3.304688 -7.605469 3.238281 -7.324219 C 3.15625 -6.949219 3.050781 -6.519531 2.921875 -6.035156 C 2.792969 -5.546875 2.648438 -5.121094 2.484375 -4.75 C 2.3125 -4.382812 2.136719 -4.183594 1.945312 -4.152344 C 1.820312 -4.148438 1.734375 -4.175781 1.667969 -4.230469 C 1.605469 -4.28125 1.546875 -4.359375 1.488281 -4.457031 C 1.292969 -4.792969 1.152344 -5.148438 1.058594 -5.523438 C 0.867188 -6.355469 0.773438 -7.195312 0.789062 -8.042969 C 0.820312 -9.371094 0.859375 -10.210938 0.925781 -10.566406 C 1.023438 -11.410156 1.160156 -12.25 1.324219 -13.082031 Z M 1.324219 -13.082031 "/></g></g></g><g fill="#000000" fill-opacity="1"><g transform="translate(216.08086, 114.599999)"><g><path d="M -0.164062 -8.363281 C -0.179688 -7.769531 -0.203125 -7.171875 -0.222656 -6.578125 C -0.25 -5.710938 -0.332031 -4.421875 0.445312 -3.824219 C 0.636719 -3.683594 0.859375 -3.609375 1.082031 -3.609375 C 2.453125 -3.609375 2.933594 -6.273438 3.15625 -7.535156 C 3.175781 -7.664062 2.929688 -7.6875 2.910156 -7.5625 C 2.769531 -6.726562 2.179688 -4.113281 1.394531 -4.128906 C 1.089844 -4.136719 0.960938 -4.878906 0.925781 -5.097656 C 0.789062 -5.910156 0.878906 -6.761719 0.90625 -7.582031 C 0.917969 -7.996094 0.988281 -9.125 0.972656 -9.546875 C 0.972656 -9.566406 0.972656 -9.589844 0.972656 -9.605469 C 1.222656 -9.625 1.328125 -9.675781 1.324219 -9.8125 C 1.316406 -9.992188 0.917969 -10.074219 0.414062 -10.074219 C -0.0859375 -10.074219 -0.496094 -10.050781 -0.496094 -9.8125 C -0.496094 -9.660156 -0.304688 -9.601562 -0.0976562 -9.59375 C -0.0976562 -9.578125 -0.105469 -9.554688 -0.105469 -9.535156 C -0.105469 -9.238281 -0.152344 -8.664062 -0.164062 -8.363281 Z M 1.40625 -11.058594 C 1.40625 -11.289062 1.054688 -11.488281 0.613281 -11.492188 C 0.175781 -11.5 -0.1875 -11.316406 -0.1875 -11.082031 C -0.191406 -10.847656 0.15625 -10.65625 0.601562 -10.648438 C 1.042969 -10.644531 1.398438 -10.824219 1.40625 -11.058594 Z M 1.40625 -11.058594 "/></g></g></g><g fill="#000000" fill-opacity="1"><g transform="translate(219.062116, 114.599999)"><g><path d="M 2.378906 -7.257812 C 2.894531 -8.125 3.761719 -10.878906 1.957031 -10.871094 C 0.355469 -10.867188 -0.285156 -8.632812 -0.355469 -7.375 C -0.402344 -6.597656 -0.402344 -5.675781 -0.0703125 -4.957031 C 0.273438 -4.21875 1.011719 -3.867188 1.804688 -3.925781 C 2.640625 -3.984375 3.355469 -4.757812 3.832031 -5.757812 C 4.207031 -6.539062 4.546875 -7.46875 4.691406 -8.09375 C 4.746094 -8.324219 4.445312 -8.339844 4.40625 -8.101562 C 4.292969 -7.488281 3.773438 -6.316406 3.613281 -6.050781 C 3.246094 -5.449219 2.675781 -4.546875 1.921875 -4.574219 C 1.054688 -4.609375 0.785156 -5.453125 0.726562 -6.308594 C 0.773438 -6.304688 0.820312 -6.292969 0.867188 -6.292969 C 1.550781 -6.234375 2.050781 -6.707031 2.378906 -7.257812 Z M 0.714844 -6.75 C 0.714844 -7.222656 0.761719 -7.65625 0.785156 -7.90625 C 0.949219 -9.578125 1.738281 -10.601562 2.089844 -10.398438 C 2.371094 -10.238281 2.378906 -9.6875 2.371094 -9.417969 C 2.359375 -8.714844 2.144531 -8.011719 1.796875 -7.398438 C 1.617188 -7.082031 1.257812 -6.46875 0.789062 -6.703125 C 0.761719 -6.714844 0.738281 -6.730469 0.714844 -6.75 Z M 0.714844 -6.75 "/></g></g></g><g fill="#000000" fill-opacity="1"><g transform="translate(223.513502, 114.599999)"><g><path d="M 1.324219 -13.082031 C 1.382812 -13.074219 1.433594 -13.070312 1.492188 -13.0625 C 1.898438 -13.015625 2.25 -12.988281 2.558594 -12.96875 C 2.871094 -12.953125 3.070312 -12.980469 3.167969 -13.046875 C 3.246094 -13.109375 3.304688 -13.175781 3.332031 -13.238281 C 3.363281 -13.296875 3.378906 -13.355469 3.386719 -13.414062 C 3.390625 -13.46875 3.386719 -13.519531 3.375 -13.5625 C 3.355469 -13.601562 3.34375 -13.632812 3.328125 -13.660156 C 3.320312 -13.667969 3.316406 -13.671875 3.316406 -13.683594 C 3.308594 -13.683594 3.308594 -13.691406 3.308594 -13.691406 C 3.304688 -13.691406 3.304688 -13.691406 3.304688 -13.695312 C 3.058594 -13.53125 2.710938 -13.449219 2.265625 -13.449219 C 1.984375 -13.445312 1.699219 -13.457031 1.40625 -13.472656 C 1.453125 -13.660156 1.511719 -13.878906 1.574219 -14.117188 C 1.691406 -14.546875 1.828125 -14.949219 1.980469 -15.332031 C 2.132812 -15.710938 2.285156 -15.96875 2.441406 -16.101562 C 2.464844 -16.121094 2.476562 -16.148438 2.484375 -16.179688 C 2.484375 -16.207031 2.472656 -16.230469 2.453125 -16.253906 C 2.378906 -16.324219 2.285156 -16.371094 2.171875 -16.394531 C 2.0625 -16.414062 1.945312 -16.40625 1.832031 -16.367188 C 1.664062 -16.296875 1.480469 -16.113281 1.277344 -15.820312 C 1.070312 -15.53125 0.84375 -15.027344 0.585938 -14.3125 C 0.496094 -14.058594 0.421875 -13.808594 0.34375 -13.554688 C 0.167969 -13.5625 0.00390625 -13.566406 -0.140625 -13.574219 C -0.4375 -13.574219 -0.644531 -13.527344 -0.75 -13.425781 C -0.777344 -13.386719 -0.800781 -13.332031 -0.808594 -13.28125 C -0.820312 -13.222656 -0.824219 -13.167969 -0.820312 -13.128906 C -0.8125 -13.085938 -0.808594 -13.0625 -0.789062 -13.070312 C -0.578125 -13.15625 -0.261719 -13.191406 0.164062 -13.175781 C 0.1875 -13.175781 0.214844 -13.175781 0.238281 -13.167969 C 0.0742188 -12.53125 -0.0507812 -11.875 -0.132812 -11.207031 C -0.273438 -10.121094 -0.332031 -9.0625 -0.308594 -8.019531 C -0.308594 -7.675781 -0.285156 -7.246094 -0.238281 -6.726562 C -0.199219 -6.203125 -0.105469 -5.683594 0.0390625 -5.171875 C 0.1875 -4.65625 0.410156 -4.242188 0.707031 -3.917969 C 1.007812 -3.597656 1.417969 -3.46875 1.925781 -3.527344 C 2.203125 -3.574219 2.429688 -3.773438 2.625 -4.117188 C 2.816406 -4.464844 2.980469 -4.898438 3.121094 -5.429688 C 3.261719 -5.957031 3.398438 -6.527344 3.519531 -7.128906 C 3.566406 -7.347656 3.613281 -7.5625 3.660156 -7.78125 C 3.679688 -7.859375 3.671875 -7.925781 3.636719 -7.976562 C 3.601562 -8.023438 3.5625 -8.042969 3.507812 -8.035156 C 3.457031 -8.03125 3.414062 -7.976562 3.386719 -7.890625 C 3.355469 -7.792969 3.304688 -7.605469 3.238281 -7.324219 C 3.15625 -6.949219 3.050781 -6.519531 2.921875 -6.035156 C 2.792969 -5.546875 2.648438 -5.121094 2.484375 -4.75 C 2.3125 -4.382812 2.136719 -4.183594 1.945312 -4.152344 C 1.820312 -4.148438 1.734375 -4.175781 1.667969 -4.230469 C 1.605469 -4.28125 1.546875 -4.359375 1.488281 -4.457031 C 1.292969 -4.792969 1.152344 -5.148438 1.058594 -5.523438 C 0.867188 -6.355469 0.773438 -7.195312 0.789062 -8.042969 C 0.820312 -9.371094 0.859375 -10.210938 0.925781 -10.566406 C 1.023438 -11.410156 1.160156 -12.25 1.324219 -13.082031 Z M 1.324219 -13.082031 "/></g></g></g><g fill="#000000" fill-opacity="1"><g transform="translate(226.869612, 114.599999)"><g><path d="M 5.742188 -7.738281 C 5.800781 -7.914062 5.367188 -7.953125 5.3125 -7.792969 C 5.015625 -6.789062 4.539062 -5.921875 4 -5.109375 C 3.542969 -5.613281 2.910156 -5.742188 2.308594 -5.601562 C 2.394531 -5.804688 2.476562 -6.015625 2.546875 -6.234375 C 2.894531 -7.21875 3.199219 -8.621094 2.789062 -9.640625 C 2.417969 -10.585938 1.328125 -10.574219 0.65625 -9.839844 C 0.363281 -9.519531 -0.222656 -8.398438 -0.222656 -7.738281 C -0.222656 -7.550781 0.0625 -7.394531 0.152344 -7.46875 C 0.152344 -7.46875 0.796875 -8.832031 1.164062 -9.308594 C 1.257812 -9.429688 1.46875 -9.625 1.617188 -9.652344 C 1.773438 -9.707031 1.890625 -9.394531 1.914062 -9.289062 C 2.007812 -8.878906 2.007812 -8.417969 1.972656 -7.988281 C 1.898438 -7.066406 1.59375 -6.191406 1.207031 -5.378906 C 1.023438 -4.984375 0.8125 -4.597656 0.597656 -4.222656 C 0.425781 -3.929688 0.117188 -3.625 0.226562 -3.261719 C 0.304688 -3.039062 0.691406 -3.117188 0.820312 -3.179688 C 1.148438 -3.351562 1.375 -3.75 1.574219 -4.136719 C 1.796875 -4.371094 2.019531 -4.605469 2.300781 -4.816406 C 2.648438 -5.074219 2.921875 -5.109375 3.210938 -4.746094 C 3.316406 -4.617188 3.398438 -4.46875 3.457031 -4.316406 C 3.09375 -3.824219 2.722656 -3.339844 2.359375 -2.847656 C 1.769531 -2.042969 1.222656 -1.210938 0.738281 -0.328125 C 0.484375 0.152344 0.238281 0.636719 0.0585938 1.152344 C -0.0820312 1.523438 -0.234375 1.9375 -0.179688 2.347656 C -0.0859375 3.128906 0.648438 3.070312 1.160156 2.859375 C 1.945312 2.523438 2.613281 1.832031 3.117188 1.082031 C 3.671875 0.238281 4.066406 -0.785156 4.3125 -1.804688 C 4.535156 -2.699219 4.75 -3.796875 4.304688 -4.65625 C 4.269531 -4.714844 4.242188 -4.773438 4.210938 -4.828125 C 4.820312 -5.722656 5.359375 -6.667969 5.742188 -7.738281 Z M 3.589844 -3.578125 C 3.667969 -1.914062 2.273438 2.25 0.648438 2.578125 C -0.292969 2.765625 0.519531 0.941406 0.703125 0.527344 C 1.371094 -0.972656 2.324219 -2.277344 3.285156 -3.542969 C 3.378906 -3.667969 3.46875 -3.789062 3.554688 -3.914062 C 3.578125 -3.800781 3.589844 -3.691406 3.589844 -3.578125 Z M 3.589844 -3.578125 "/></g></g></g></svg>