<svg xmlns="http://www.w3.org/2000/svg" xmlns:xlink="http://www.w3.org/1999/xlink" width="500" zoomAndPan="magnify" viewBox="0 0 375 225" height="300" preserveAspectRatio="xMidYMid meet" version="1.0"><rect x="-37.5" width="450" fill="#ffffff" y="-22.5" height="270" fill-opacity="1"/><rect x="-37.5" width="450" fill="#ffffff" y="-22.5" height="270" fill-opacity="1"/><path fill="#000000" d="M 112.449219 24.988281 C 114.203125 40.730469 102.433594 118.582031 108.078125 136.785156 C 110.863281 147.125 117.226562 154.835938 128.832031 153.25 C 129.621094 153.085938 132.960938 151.578125 131.453125 150.699219 C 108.394531 136.621094 128.507812 55.605469 126.6875 21.648438 C 125.726562 15.6875 114.59375 8.058594 109.980469 12.269531 C 103.789062 17.832031 99.964844 30.480469 98.214844 35.964844 C 92.972656 52.5 88.117188 70.398438 86.527344 88.046875 C 86.050781 85.898438 85.738281 83.59375 85.496094 81.367188 C 84.707031 71.90625 86.050781 62.445312 87.558594 53.054688 C 88.277344 48.289062 89.078125 43.59375 89.632812 38.828125 C 90.109375 34.851562 91.222656 32.382812 89.949219 28.488281 C 87.882812 21.972656 78.097656 18.390625 72.925781 21.808594 C 69.519531 24.117188 59.816406 47.175781 53.300781 68.648438 C 52.335938 71.664062 51.546875 74.609375 50.75 77.632812 C 51.144531 72.300781 51.699219 66.980469 52.417969 61.566406 C 53.21875 55.28125 55.445312 45.984375 55.59375 40.894531 C 55.757812 36.199219 43.675781 37.160156 41.683594 40.972656 C 38.261719 46.457031 35.640625 75.640625 35.167969 83.753906 C 34.691406 91.382812 34.609375 99.09375 35.085938 106.734375 C 35.328125 110.792969 35.804688 114.757812 36.359375 118.734375 C 37.066406 123.511719 37.3125 124.066406 41.601562 126.457031 C 43.675781 127.636719 47.410156 127.40625 49.242188 125.816406 C 52.660156 122.710938 52.023438 121.679688 51.386719 117.308594 C 51.144531 115.871094 50.992188 114.445312 50.910156 113.019531 C 53.613281 99.09375 56.476562 85.261719 60.453125 71.746094 C 62.761719 64.035156 65.460938 56.394531 68.558594 49.007812 C 69.996094 45.671875 71.421875 42.25 73.171875 39.144531 C 73.648438 38.273438 74.285156 37.160156 75.003906 36.046875 C 73.648438 47.734375 71.421875 67.769531 71.257812 75.164062 C 70.945312 90.746094 72.859375 105.066406 88.046875 105.378906 C 89.308594 105.378906 90.898438 105.066406 91.941406 104.265625 C 92.730469 103.871094 93.367188 103.3125 93.449219 102.675781 C 96.148438 87.175781 97.585938 71.664062 101.402344 56.324219 C 103.152344 49.484375 104.972656 42.644531 107.359375 35.964844 C 108.796875 31.910156 110.226562 28.40625 112.449219 24.988281 Z M 112.449219 24.988281 " fill-opacity="1" fill-rule="nonzero"/><path fill="#000000" d="M 205.226562 62.527344 C 203.640625 73.414062 200.9375 83.90625 196.566406 93.933594 C 194.503906 98.699219 192.195312 103.3125 189.25 107.605469 C 188.382812 109.042969 187.339844 110.386719 186.226562 111.742188 C 185.914062 110.710938 185.589844 109.597656 185.519531 108.484375 C 181.21875 86.621094 183.210938 63.710938 184.878906 41.613281 C 185.113281 38.109375 178.910156 37.078125 174.375 38.273438 C 174.144531 37.949219 173.984375 37.714844 173.75 37.472656 C 168.1875 31.351562 157.207031 31.910156 151.085938 36.835938 C 143.050781 43.199219 139.398438 56.082031 136.847656 65.460938 C 133.914062 76.441406 132.558594 87.652344 133.195312 98.941406 C 133.671875 107.523438 134.703125 118.976562 143.933594 122.628906 C 154.425781 126.6875 161.101562 118.816406 164.996094 110.15625 C 166.433594 106.964844 167.699219 103.628906 168.742188 100.207031 C 169.53125 108.878906 171.835938 117.78125 179.628906 119.929688 C 192.429688 123.429688 196.648438 111.660156 200.070312 102.039062 C 204.601562 89.402344 207.140625 75.964844 208.730469 62.679688 C 208.808594 61.972656 205.308594 61.726562 205.226562 62.527344 Z M 161.902344 83.035156 C 160.3125 88.84375 158.644531 94.640625 156.570312 100.289062 C 155.699219 102.59375 153.390625 109.355469 150.609375 113.25 C 149.660156 110.710938 149.101562 107.441406 148.941406 106.179688 C 148.222656 101.875 148.058594 97.425781 148.058594 93.054688 C 148.058594 83.28125 149.496094 73.414062 152.359375 64.035156 C 153.625 59.746094 155.222656 55.523438 157.125 51.386719 C 158.007812 49.402344 158.957031 47.410156 159.988281 45.589844 C 160.625 44.476562 161.265625 43.28125 162.050781 42.085938 C 162.539062 42.726562 163.097656 43.363281 163.492188 44 C 164.683594 45.671875 165.554688 47.570312 166.585938 49.320312 C 167.140625 50.355469 167.628906 51.386719 168.023438 52.429688 C 166.355469 62.679688 164.765625 73.019531 161.902344 83.035156 Z M 161.902344 83.035156 " fill-opacity="1" fill-rule="nonzero"/><path fill="#000000" d="M 278.78125 61.644531 C 273.855469 80.8125 266.851562 97.667969 255.003906 112.054688 C 255.246094 105.703125 255.394531 99.417969 255.640625 93.054688 C 256.195312 73.019531 257.703125 55.769531 257.066406 35.722656 C 256.914062 30.632812 243.398438 28.011719 242.921875 33.101562 C 241.808594 45.589844 241.171875 58.226562 240.847656 70.875 C 239.734375 75.964844 238.46875 80.972656 236.800781 85.820312 C 234.804688 91.464844 232.578125 97.191406 229.484375 102.363281 C 227.097656 106.410156 222.085938 113.726562 221.136719 113.414062 C 216.046875 110.074219 215.804688 101.5625 215.492188 96.230469 C 215.167969 89.15625 215.003906 82.085938 215.003906 74.921875 C 214.933594 67.375 216.277344 45.34375 216.441406 37.796875 C 216.753906 29.042969 204.035156 26.179688 202.609375 32.628906 C 201.171875 38.503906 200.617188 49.484375 200.371094 57.589844 C 200.058594 67.6875 200.058594 77.785156 200.371094 87.882812 C 200.777344 102.039062 201.730469 120.332031 219.617188 122.152344 C 226.851562 123.824219 235.050781 111.347656 240.289062 99.730469 C 240.140625 108.960938 239.976562 118.097656 239.734375 127.242188 C 224.476562 140.125 207.769531 152.53125 197.914062 170.335938 C 192.105469 180.921875 189.011719 194.035156 194.886719 205.246094 C 199.898438 214.949219 210.238281 218.519531 220.648438 217.175781 C 234.574219 215.34375 243.792969 207.554688 248.71875 194.359375 C 253.578125 181.316406 253.414062 167 253.808594 153.328125 C 254.132812 142.351562 254.445312 131.382812 254.769531 120.402344 C 271.222656 104.347656 278.539062 84.542969 286.328125 62.527344 C 287.359375 59.582031 279.488281 59.105469 278.78125 61.644531 Z M 238.308594 170.894531 C 237.507812 182.824219 235.445312 196.261719 226.851562 205.246094 C 221.695312 210.578125 215.964844 216.226562 208.175781 211.84375 C 202.84375 208.828125 199.585938 202.707031 198.472656 196.816406 C 195.921875 183.21875 203.640625 169.78125 211.910156 159.683594 C 220.09375 149.910156 229.796875 141.792969 239.5 133.691406 C 239.257812 146.09375 239.09375 158.488281 238.308594 170.894531 Z M 238.308594 170.894531 " fill-opacity="1" fill-rule="nonzero"/><path fill="#000000" d="M 345.714844 62.527344 C 344.125 73.414062 341.425781 83.90625 337.054688 93.933594 C 334.992188 98.699219 332.683594 103.3125 329.738281 107.605469 C 328.871094 109.042969 327.824219 110.386719 326.714844 111.742188 C 326.398438 110.710938 326.074219 109.597656 326.003906 108.484375 C 321.703125 86.621094 323.699219 63.710938 325.367188 41.613281 C 325.601562 38.109375 319.398438 37.078125 314.863281 38.273438 C 314.632812 37.949219 314.46875 37.714844 314.238281 37.472656 C 308.671875 31.351562 297.695312 31.910156 291.574219 36.835938 C 283.539062 43.199219 279.886719 56.082031 277.335938 65.460938 C 274.402344 76.441406 273.046875 87.652344 273.683594 98.941406 C 274.160156 107.523438 275.191406 118.976562 284.417969 122.628906 C 294.910156 126.6875 301.589844 118.816406 305.484375 110.15625 C 306.921875 106.964844 308.1875 103.628906 309.230469 100.207031 C 310.019531 108.878906 312.324219 117.78125 320.117188 119.929688 C 332.914062 123.429688 337.136719 111.660156 340.554688 102.039062 C 345.089844 89.402344 347.628906 75.964844 349.214844 62.679688 C 349.296875 61.972656 345.796875 61.726562 345.714844 62.527344 Z M 302.390625 83.035156 C 300.800781 88.84375 299.132812 94.640625 297.054688 100.289062 C 296.1875 102.59375 293.878906 109.355469 291.097656 113.25 C 290.144531 110.710938 289.589844 107.441406 289.425781 106.179688 C 288.707031 101.875 288.546875 97.425781 288.546875 93.054688 C 288.546875 83.28125 289.984375 73.414062 292.847656 64.035156 C 294.113281 59.746094 295.710938 55.523438 297.613281 51.386719 C 298.492188 49.402344 299.445312 47.410156 300.476562 45.589844 C 301.113281 44.476562 301.75 43.28125 302.539062 42.085938 C 303.027344 42.726562 303.582031 43.363281 303.976562 44 C 305.171875 45.671875 306.042969 47.570312 307.074219 49.320312 C 307.628906 50.355469 308.117188 51.386719 308.511719 52.429688 C 306.839844 62.679688 305.253906 73.019531 302.390625 83.035156 Z M 302.390625 83.035156 " fill-opacity="1" fill-rule="nonzero"/></svg>