<svg xmlns="http://www.w3.org/2000/svg" xmlns:xlink="http://www.w3.org/1999/xlink" width="500" zoomAndPan="magnify" viewBox="0 0 375 374.999991" height="500" preserveAspectRatio="xMidYMid meet" version="1.0"><defs><g/></defs><g fill="#000000" fill-opacity="1"><g transform="translate(135.552579, 232.514362)"><g><path d="M 25.128906 -50.367188 C 25.71875 -45.0625 21.753906 -18.832031 23.65625 -12.699219 C 24.59375 -9.214844 26.738281 -6.617188 30.648438 -7.152344 C 30.914062 -7.207031 32.039062 -7.714844 31.53125 -8.011719 C 23.761719 -12.753906 30.539062 -40.050781 29.925781 -51.492188 C 29.601562 -53.5 25.851562 -56.070312 24.296875 -54.652344 C 22.210938 -52.777344 20.921875 -48.515625 20.332031 -46.667969 C 18.566406 -41.097656 16.929688 -35.066406 16.394531 -29.121094 C 16.234375 -29.84375 16.128906 -30.621094 16.046875 -31.371094 C 15.78125 -34.558594 16.234375 -37.746094 16.742188 -40.910156 C 16.984375 -42.515625 17.253906 -44.097656 17.441406 -45.703125 C 17.601562 -47.042969 17.976562 -47.875 17.546875 -49.1875 C 16.851562 -51.382812 13.554688 -52.589844 11.8125 -51.4375 C 10.664062 -50.660156 7.394531 -42.890625 5.199219 -35.65625 C 4.875 -34.640625 4.609375 -33.648438 4.339844 -32.628906 C 4.472656 -34.425781 4.660156 -36.21875 4.902344 -38.042969 C 5.171875 -40.160156 5.921875 -43.292969 5.972656 -45.007812 C 6.027344 -46.589844 1.957031 -46.265625 1.285156 -44.980469 C 0.132812 -43.132812 -0.75 -33.300781 -0.910156 -30.566406 C -1.070312 -27.996094 -1.097656 -25.398438 -0.9375 -22.824219 C -0.855469 -21.457031 -0.695312 -20.121094 -0.507812 -18.78125 C -0.269531 -17.171875 -0.1875 -16.984375 1.257812 -16.179688 C 1.957031 -15.78125 3.214844 -15.859375 3.832031 -16.394531 C 4.984375 -17.441406 4.769531 -17.789062 4.554688 -19.261719 C 4.472656 -19.746094 4.421875 -20.226562 4.394531 -20.707031 C 5.304688 -25.398438 6.269531 -30.058594 7.609375 -34.613281 C 8.386719 -37.210938 9.296875 -39.785156 10.339844 -42.273438 C 10.824219 -43.398438 11.304688 -44.550781 11.894531 -45.597656 C 12.054688 -45.890625 12.269531 -46.265625 12.511719 -46.640625 C 12.054688 -42.703125 11.304688 -35.953125 11.25 -33.460938 C 11.144531 -28.210938 11.789062 -23.386719 16.90625 -23.28125 C 17.332031 -23.28125 17.867188 -23.386719 18.21875 -23.65625 C 18.484375 -23.789062 18.699219 -23.976562 18.726562 -24.191406 C 19.636719 -29.414062 20.121094 -34.640625 21.40625 -39.808594 C 21.996094 -42.113281 22.609375 -44.417969 23.414062 -46.667969 C 23.898438 -48.035156 24.378906 -49.214844 25.128906 -50.367188 Z M 25.128906 -50.367188 "/></g></g></g><g fill="#000000" fill-opacity="1"><g transform="translate(170.483785, 232.514362)"><g><path d="M 21.457031 -37.71875 C 20.921875 -34.050781 20.011719 -30.515625 18.539062 -27.136719 C 17.84375 -25.53125 17.066406 -23.976562 16.074219 -22.53125 C 15.78125 -22.046875 15.429688 -21.59375 15.054688 -21.136719 C 14.949219 -21.484375 14.839844 -21.859375 14.816406 -22.234375 C 13.367188 -29.601562 14.039062 -37.320312 14.601562 -44.765625 C 14.679688 -45.945312 12.589844 -46.292969 11.0625 -45.890625 C 10.984375 -46 10.929688 -46.078125 10.851562 -46.160156 C 8.976562 -48.222656 5.277344 -48.035156 3.214844 -46.375 C 0.507812 -44.230469 -0.722656 -39.890625 -1.582031 -36.730469 C -2.570312 -33.03125 -3.027344 -29.253906 -2.8125 -25.449219 C -2.652344 -22.558594 -2.304688 -18.699219 0.804688 -17.46875 C 4.339844 -16.101562 6.589844 -18.753906 7.902344 -21.671875 C 8.386719 -22.746094 8.8125 -23.871094 9.164062 -25.023438 C 9.429688 -22.101562 10.207031 -19.101562 12.832031 -18.378906 C 17.144531 -17.199219 18.566406 -21.164062 19.71875 -24.40625 C 21.246094 -28.664062 22.101562 -33.191406 22.636719 -37.667969 C 22.664062 -37.90625 21.484375 -37.988281 21.457031 -37.71875 Z M 6.859375 -30.808594 C 6.324219 -28.851562 5.761719 -26.898438 5.0625 -24.996094 C 4.769531 -24.21875 3.992188 -21.941406 3.054688 -20.628906 C 2.734375 -21.484375 2.546875 -22.585938 2.492188 -23.011719 C 2.25 -24.460938 2.195312 -25.960938 2.195312 -27.433594 C 2.195312 -30.726562 2.679688 -34.050781 3.644531 -37.210938 C 4.070312 -38.65625 4.609375 -40.078125 5.25 -41.472656 C 5.546875 -42.140625 5.867188 -42.8125 6.214844 -43.425781 C 6.429688 -43.800781 6.644531 -44.203125 6.910156 -44.605469 C 7.074219 -44.390625 7.261719 -44.175781 7.394531 -43.960938 C 7.796875 -43.398438 8.089844 -42.757812 8.4375 -42.167969 C 8.625 -41.820312 8.789062 -41.472656 8.921875 -41.121094 C 8.359375 -37.667969 7.824219 -34.183594 6.859375 -30.808594 Z M 6.859375 -30.808594 "/></g></g></g><g fill="#000000" fill-opacity="1"><g transform="translate(192.101507, 232.514362)"><g><path d="M 24.621094 -38.015625 C 22.960938 -31.558594 20.601562 -25.878906 16.609375 -21.03125 C 16.691406 -23.171875 16.742188 -25.289062 16.824219 -27.433594 C 17.011719 -34.183594 17.519531 -39.996094 17.304688 -46.75 C 17.253906 -48.464844 12.699219 -49.347656 12.539062 -47.632812 C 12.164062 -43.425781 11.949219 -39.167969 11.839844 -34.90625 C 11.464844 -33.191406 11.039062 -31.503906 10.476562 -29.871094 C 9.804688 -27.96875 9.054688 -26.039062 8.011719 -24.296875 C 7.207031 -22.933594 5.519531 -20.46875 5.199219 -20.574219 C 3.484375 -21.699219 3.402344 -24.566406 3.296875 -26.363281 C 3.1875 -28.746094 3.132812 -31.128906 3.132812 -33.542969 C 3.109375 -36.085938 3.5625 -43.507812 3.617188 -46.050781 C 3.722656 -49 -0.5625 -49.964844 -1.042969 -47.792969 C -1.527344 -45.8125 -1.714844 -42.113281 -1.796875 -39.382812 C -1.902344 -35.980469 -1.902344 -32.578125 -1.796875 -29.175781 C -1.660156 -24.40625 -1.339844 -18.242188 4.6875 -17.628906 C 7.125 -17.066406 9.886719 -21.269531 11.652344 -25.183594 C 11.601562 -22.074219 11.546875 -18.996094 11.464844 -15.914062 C 6.324219 -11.574219 0.695312 -7.394531 -2.625 -1.394531 C -4.582031 2.171875 -5.625 6.589844 -3.644531 10.367188 C -1.957031 13.636719 1.527344 14.839844 5.035156 14.386719 C 9.726562 13.769531 12.832031 11.144531 14.492188 6.699219 C 16.128906 2.304688 16.074219 -2.519531 16.207031 -7.125 C 16.316406 -10.824219 16.421875 -14.519531 16.53125 -18.21875 C 22.074219 -23.628906 24.539062 -30.300781 27.164062 -37.71875 C 27.511719 -38.710938 24.859375 -38.871094 24.621094 -38.015625 Z M 10.984375 -1.207031 C 10.714844 2.8125 10.019531 7.339844 7.125 10.367188 C 5.386719 12.164062 3.457031 14.066406 0.832031 12.589844 C -0.964844 11.574219 -2.0625 9.511719 -2.4375 7.527344 C -3.296875 2.945312 -0.695312 -1.582031 2.089844 -4.984375 C 4.847656 -8.277344 8.117188 -11.011719 11.386719 -13.742188 C 11.304688 -9.5625 11.25 -5.386719 10.984375 -1.207031 Z M 10.984375 -1.207031 "/></g></g></g><g fill="#000000" fill-opacity="1"><g transform="translate(217.817733, 232.514362)"><g><path d="M 21.457031 -37.71875 C 20.921875 -34.050781 20.011719 -30.515625 18.539062 -27.136719 C 17.84375 -25.53125 17.066406 -23.976562 16.074219 -22.53125 C 15.78125 -22.046875 15.429688 -21.59375 15.054688 -21.136719 C 14.949219 -21.484375 14.839844 -21.859375 14.816406 -22.234375 C 13.367188 -29.601562 14.039062 -37.320312 14.601562 -44.765625 C 14.679688 -45.945312 12.589844 -46.292969 11.0625 -45.890625 C 10.984375 -46 10.929688 -46.078125 10.851562 -46.160156 C 8.976562 -48.222656 5.277344 -48.035156 3.214844 -46.375 C 0.507812 -44.230469 -0.722656 -39.890625 -1.582031 -36.730469 C -2.570312 -33.03125 -3.027344 -29.253906 -2.8125 -25.449219 C -2.652344 -22.558594 -2.304688 -18.699219 0.804688 -17.46875 C 4.339844 -16.101562 6.589844 -18.753906 7.902344 -21.671875 C 8.386719 -22.746094 8.8125 -23.871094 9.164062 -25.023438 C 9.429688 -22.101562 10.207031 -19.101562 12.832031 -18.378906 C 17.144531 -17.199219 18.566406 -21.164062 19.71875 -24.40625 C 21.246094 -28.664062 22.101562 -33.191406 22.636719 -37.667969 C 22.664062 -37.90625 21.484375 -37.988281 21.457031 -37.71875 Z M 6.859375 -30.808594 C 6.324219 -28.851562 5.761719 -26.898438 5.0625 -24.996094 C 4.769531 -24.21875 3.992188 -21.941406 3.054688 -20.628906 C 2.734375 -21.484375 2.546875 -22.585938 2.492188 -23.011719 C 2.25 -24.460938 2.195312 -25.960938 2.195312 -27.433594 C 2.195312 -30.726562 2.679688 -34.050781 3.644531 -37.210938 C 4.070312 -38.65625 4.609375 -40.078125 5.25 -41.472656 C 5.546875 -42.140625 5.867188 -42.8125 6.214844 -43.425781 C 6.429688 -43.800781 6.644531 -44.203125 6.910156 -44.605469 C 7.074219 -44.390625 7.261719 -44.175781 7.394531 -43.960938 C 7.796875 -43.398438 8.089844 -42.757812 8.4375 -42.167969 C 8.625 -41.820312 8.789062 -41.472656 8.921875 -41.121094 C 8.359375 -37.667969 7.824219 -34.183594 6.859375 -30.808594 Z M 6.859375 -30.808594 "/></g></g></g></svg>