<svg xmlns="http://www.w3.org/2000/svg" xmlns:xlink="http://www.w3.org/1999/xlink" width="500" zoomAndPan="magnify" viewBox="0 0 375 374.999991" height="500" preserveAspectRatio="xMidYMid meet" version="1.0"><defs><g/></defs><g fill="#000000" fill-opacity="1"><g transform="translate(112.702146, 190.999996)"><g><path d="M 9.15625 -18.355469 C 9.371094 -16.421875 7.925781 -6.863281 8.621094 -4.628906 C 8.960938 -3.359375 9.742188 -2.410156 11.167969 -2.605469 C 11.265625 -2.625 11.675781 -2.8125 11.492188 -2.917969 C 8.660156 -4.648438 11.128906 -14.597656 10.90625 -18.765625 C 10.789062 -19.496094 9.421875 -20.433594 8.855469 -19.917969 C 8.09375 -19.234375 7.625 -17.679688 7.410156 -17.007812 C 6.765625 -14.976562 6.171875 -12.78125 5.976562 -10.613281 C 5.917969 -10.875 5.878906 -11.160156 5.847656 -11.433594 C 5.75 -12.59375 5.917969 -13.757812 6.101562 -14.910156 C 6.191406 -15.496094 6.289062 -16.070312 6.355469 -16.65625 C 6.414062 -17.144531 6.550781 -17.445312 6.394531 -17.925781 C 6.140625 -18.726562 4.941406 -19.164062 4.304688 -18.746094 C 3.886719 -18.460938 2.695312 -15.628906 1.894531 -12.996094 C 1.777344 -12.625 1.679688 -12.261719 1.582031 -11.890625 C 1.628906 -12.546875 1.699219 -13.199219 1.785156 -13.863281 C 1.882812 -14.636719 2.15625 -15.777344 2.175781 -16.402344 C 2.195312 -16.976562 0.710938 -16.859375 0.46875 -16.390625 C 0.046875 -15.71875 -0.273438 -12.136719 -0.332031 -11.140625 C -0.390625 -10.203125 -0.398438 -9.253906 -0.339844 -8.316406 C -0.3125 -7.820312 -0.253906 -7.332031 -0.183594 -6.84375 C -0.0976562 -6.257812 -0.0664062 -6.191406 0.457031 -5.898438 C 0.710938 -5.75 1.171875 -5.78125 1.394531 -5.976562 C 1.816406 -6.355469 1.738281 -6.484375 1.660156 -7.019531 C 1.628906 -7.195312 1.609375 -7.371094 1.601562 -7.546875 C 1.933594 -9.253906 2.285156 -10.953125 2.773438 -12.613281 C 3.054688 -13.5625 3.386719 -14.5 3.769531 -15.40625 C 3.945312 -15.816406 4.121094 -16.234375 4.335938 -16.617188 C 4.394531 -16.722656 4.472656 -16.859375 4.558594 -16.996094 C 4.394531 -15.5625 4.121094 -13.101562 4.101562 -12.195312 C 4.0625 -10.28125 4.296875 -8.523438 6.160156 -8.484375 C 6.316406 -8.484375 6.511719 -8.523438 6.640625 -8.621094 C 6.738281 -8.667969 6.816406 -8.738281 6.824219 -8.816406 C 7.15625 -10.71875 7.332031 -12.625 7.800781 -14.507812 C 8.015625 -15.347656 8.238281 -16.1875 8.53125 -17.007812 C 8.707031 -17.503906 8.882812 -17.933594 9.15625 -18.355469 Z M 9.15625 -18.355469 "/></g></g></g><g fill="#000000" fill-opacity="1"><g transform="translate(125.431545, 190.999996)"><g><path d="M 7.820312 -13.746094 C 7.625 -12.410156 7.292969 -11.121094 6.757812 -9.890625 C 6.503906 -9.304688 6.21875 -8.738281 5.859375 -8.210938 C 5.75 -8.035156 5.625 -7.867188 5.488281 -7.703125 C 5.449219 -7.828125 5.410156 -7.964844 5.398438 -8.101562 C 4.871094 -10.789062 5.117188 -13.601562 5.320312 -16.3125 C 5.351562 -16.742188 4.589844 -16.871094 4.03125 -16.722656 C 4.003906 -16.761719 3.984375 -16.792969 3.953125 -16.820312 C 3.269531 -17.574219 1.921875 -17.503906 1.171875 -16.898438 C 0.183594 -16.117188 -0.261719 -14.539062 -0.574219 -13.386719 C -0.9375 -12.039062 -1.101562 -10.660156 -1.023438 -9.273438 C -0.964844 -8.21875 -0.839844 -6.816406 0.292969 -6.367188 C 1.582031 -5.867188 2.402344 -6.835938 2.878906 -7.898438 C 3.054688 -8.289062 3.210938 -8.699219 3.339844 -9.117188 C 3.4375 -8.054688 3.71875 -6.960938 4.675781 -6.699219 C 6.25 -6.269531 6.765625 -7.714844 7.1875 -8.894531 C 7.742188 -10.445312 8.054688 -12.097656 8.25 -13.726562 C 8.257812 -13.816406 7.828125 -13.84375 7.820312 -13.746094 Z M 2.5 -11.226562 C 2.304688 -10.515625 2.097656 -9.800781 1.84375 -9.109375 C 1.738281 -8.824219 1.453125 -7.996094 1.113281 -7.519531 C 0.996094 -7.828125 0.925781 -8.230469 0.90625 -8.386719 C 0.820312 -8.914062 0.800781 -9.460938 0.800781 -9.996094 C 0.800781 -11.199219 0.976562 -12.410156 1.328125 -13.5625 C 1.484375 -14.089844 1.679688 -14.605469 1.914062 -15.113281 C 2.019531 -15.359375 2.136719 -15.601562 2.265625 -15.824219 C 2.34375 -15.960938 2.421875 -16.109375 2.519531 -16.253906 C 2.578125 -16.175781 2.644531 -16.097656 2.695312 -16.019531 C 2.839844 -15.816406 2.949219 -15.582031 3.074219 -15.367188 C 3.144531 -15.242188 3.203125 -15.113281 3.25 -14.988281 C 3.046875 -13.726562 2.851562 -12.457031 2.5 -11.226562 Z M 2.5 -11.226562 "/></g></g></g><g fill="#000000" fill-opacity="1"><g transform="translate(133.309326, 190.999996)"><g><path d="M 8.972656 -13.855469 C 8.367188 -11.5 7.507812 -9.429688 6.054688 -7.664062 C 6.082031 -8.445312 6.101562 -9.214844 6.132812 -9.996094 C 6.199219 -12.457031 6.386719 -14.578125 6.308594 -17.035156 C 6.289062 -17.660156 4.628906 -17.984375 4.570312 -17.359375 C 4.433594 -15.824219 4.355469 -14.273438 4.316406 -12.722656 C 4.179688 -12.097656 4.023438 -11.480469 3.816406 -10.886719 C 3.574219 -10.191406 3.300781 -9.488281 2.917969 -8.855469 C 2.625 -8.355469 2.011719 -7.460938 1.894531 -7.5 C 1.269531 -7.90625 1.238281 -8.953125 1.199219 -9.605469 C 1.160156 -10.476562 1.140625 -11.34375 1.140625 -12.222656 C 1.132812 -13.152344 1.296875 -15.855469 1.316406 -16.78125 C 1.355469 -17.855469 -0.203125 -18.207031 -0.378906 -17.417969 C -0.554688 -16.695312 -0.625 -15.347656 -0.652344 -14.351562 C -0.691406 -13.113281 -0.691406 -11.871094 -0.652344 -10.632812 C -0.605469 -8.894531 -0.488281 -6.648438 1.707031 -6.425781 C 2.597656 -6.21875 3.601562 -7.753906 4.246094 -9.175781 C 4.226562 -8.042969 4.207031 -6.921875 4.179688 -5.800781 C 2.304688 -4.21875 0.253906 -2.695312 -0.957031 -0.507812 C -1.667969 0.789062 -2.050781 2.402344 -1.328125 3.777344 C -0.710938 4.96875 0.554688 5.410156 1.835938 5.242188 C 3.542969 5.019531 4.675781 4.0625 5.28125 2.441406 C 5.878906 0.839844 5.859375 -0.917969 5.90625 -2.597656 C 5.945312 -3.945312 5.984375 -5.292969 6.023438 -6.640625 C 8.042969 -8.609375 8.941406 -11.042969 9.898438 -13.746094 C 10.027344 -14.109375 9.058594 -14.167969 8.972656 -13.855469 Z M 4.003906 -0.4375 C 3.90625 1.023438 3.652344 2.675781 2.597656 3.777344 C 1.960938 4.433594 1.257812 5.125 0.300781 4.589844 C -0.351562 4.21875 -0.75 3.464844 -0.886719 2.742188 C -1.199219 1.074219 -0.253906 -0.574219 0.761719 -1.816406 C 1.765625 -3.015625 2.957031 -4.011719 4.148438 -5.007812 C 4.121094 -3.484375 4.101562 -1.960938 4.003906 -0.4375 Z M 4.003906 -0.4375 "/></g></g></g><g fill="#000000" fill-opacity="1"><g transform="translate(142.680663, 190.999996)"><g><path d="M 7.820312 -13.746094 C 7.625 -12.410156 7.292969 -11.121094 6.757812 -9.890625 C 6.503906 -9.304688 6.21875 -8.738281 5.859375 -8.210938 C 5.75 -8.035156 5.625 -7.867188 5.488281 -7.703125 C 5.449219 -7.828125 5.410156 -7.964844 5.398438 -8.101562 C 4.871094 -10.789062 5.117188 -13.601562 5.320312 -16.3125 C 5.351562 -16.742188 4.589844 -16.871094 4.03125 -16.722656 C 4.003906 -16.761719 3.984375 -16.792969 3.953125 -16.820312 C 3.269531 -17.574219 1.921875 -17.503906 1.171875 -16.898438 C 0.183594 -16.117188 -0.261719 -14.539062 -0.574219 -13.386719 C -0.9375 -12.039062 -1.101562 -10.660156 -1.023438 -9.273438 C -0.964844 -8.21875 -0.839844 -6.816406 0.292969 -6.367188 C 1.582031 -5.867188 2.402344 -6.835938 2.878906 -7.898438 C 3.054688 -8.289062 3.210938 -8.699219 3.339844 -9.117188 C 3.4375 -8.054688 3.71875 -6.960938 4.675781 -6.699219 C 6.25 -6.269531 6.765625 -7.714844 7.1875 -8.894531 C 7.742188 -10.445312 8.054688 -12.097656 8.25 -13.726562 C 8.257812 -13.816406 7.828125 -13.84375 7.820312 -13.746094 Z M 2.5 -11.226562 C 2.304688 -10.515625 2.097656 -9.800781 1.84375 -9.109375 C 1.738281 -8.824219 1.453125 -7.996094 1.113281 -7.519531 C 0.996094 -7.828125 0.925781 -8.230469 0.90625 -8.386719 C 0.820312 -8.914062 0.800781 -9.460938 0.800781 -9.996094 C 0.800781 -11.199219 0.976562 -12.410156 1.328125 -13.5625 C 1.484375 -14.089844 1.679688 -14.605469 1.914062 -15.113281 C 2.019531 -15.359375 2.136719 -15.601562 2.265625 -15.824219 C 2.34375 -15.960938 2.421875 -16.109375 2.519531 -16.253906 C 2.578125 -16.175781 2.644531 -16.097656 2.695312 -16.019531 C 2.839844 -15.816406 2.949219 -15.582031 3.074219 -15.367188 C 3.144531 -15.242188 3.203125 -15.113281 3.25 -14.988281 C 3.046875 -13.726562 2.851562 -12.457031 2.5 -11.226562 Z M 2.5 -11.226562 "/></g></g></g><g fill="#000000" fill-opacity="1"><g transform="translate(155.468634, 190.999996)"><g><path d="M 3.964844 -12.097656 C 4.824219 -13.542969 6.269531 -18.128906 3.261719 -18.121094 C 0.59375 -18.109375 -0.476562 -14.390625 -0.59375 -12.292969 C -0.671875 -10.992188 -0.671875 -9.460938 -0.117188 -8.257812 C 0.457031 -7.03125 1.6875 -6.445312 3.007812 -6.542969 C 4.402344 -6.640625 5.59375 -7.925781 6.386719 -9.597656 C 7.011719 -10.894531 7.578125 -12.449219 7.820312 -13.492188 C 7.90625 -13.875 7.410156 -13.902344 7.34375 -13.503906 C 7.15625 -12.476562 6.289062 -10.523438 6.023438 -10.085938 C 5.410156 -9.078125 4.460938 -7.578125 3.203125 -7.625 C 1.757812 -7.683594 1.308594 -9.089844 1.210938 -10.515625 C 1.289062 -10.503906 1.367188 -10.484375 1.445312 -10.484375 C 2.585938 -10.386719 3.417969 -11.179688 3.964844 -12.097656 Z M 1.191406 -11.246094 C 1.191406 -12.039062 1.269531 -12.761719 1.308594 -13.179688 C 1.582031 -15.960938 2.898438 -17.671875 3.484375 -17.328125 C 3.953125 -17.066406 3.964844 -16.148438 3.953125 -15.699219 C 3.933594 -14.527344 3.574219 -13.355469 2.996094 -12.332031 C 2.695312 -11.804688 2.097656 -10.777344 1.316406 -11.167969 C 1.269531 -11.1875 1.230469 -11.21875 1.191406 -11.246094 Z M 1.191406 -11.246094 "/></g></g></g><g fill="#000000" fill-opacity="1"><g transform="translate(162.887609, 190.999996)"><g><path d="M 6.082031 -12.925781 C 6.179688 -13.328125 5.769531 -13.582031 5.613281 -13.113281 C 5.371094 -12.398438 4.402344 -6.914062 3.203125 -6.855469 C 2.792969 -6.835938 2.644531 -7.03125 2.441406 -7.363281 C 2.109375 -7.90625 1.894531 -8.53125 1.726562 -9.148438 C 1.386719 -10.515625 1.289062 -11.96875 1.269531 -13.367188 C 1.257812 -14.050781 1.269531 -15.261719 1.308594 -15.941406 C 4.207031 -19.742188 5.839844 -25.8125 4.609375 -27.171875 C 4.21875 -27.601562 3.769531 -27.726562 3.242188 -27.542969 C 2.65625 -27.347656 1.894531 -26.585938 0.925781 -23.859375 C -0.234375 -20.582031 -0.644531 -16.792969 -0.574219 -13.328125 C -0.527344 -11.128906 -0.292969 -5.300781 3.171875 -5.800781 C 4.746094 -6.023438 5.332031 -9.566406 6.082031 -12.925781 Z M 2.167969 -21.8125 C 2.421875 -23.128906 3.347656 -26.632812 4.140625 -26.878906 C 5.339844 -25.140625 2.148438 -18.199219 1.492188 -17.59375 C 1.660156 -19.007812 1.894531 -20.414062 2.167969 -21.8125 Z M 2.167969 -21.8125 "/></g></g></g><g fill="#000000" fill-opacity="1"><g transform="translate(168.481126, 190.999996)"><g><path d="M -0.273438 -13.941406 C -0.300781 -12.945312 -0.339844 -11.949219 -0.371094 -10.964844 C -0.417969 -9.519531 -0.554688 -7.371094 0.742188 -6.375 C 1.0625 -6.140625 1.433594 -6.015625 1.804688 -6.015625 C 4.089844 -6.015625 4.890625 -10.457031 5.261719 -12.554688 C 5.292969 -12.769531 4.882812 -12.808594 4.851562 -12.605469 C 4.617188 -11.207031 3.632812 -6.855469 2.324219 -6.882812 C 1.816406 -6.894531 1.601562 -8.132812 1.542969 -8.492188 C 1.316406 -9.851562 1.464844 -11.265625 1.511719 -12.632812 C 1.53125 -13.328125 1.648438 -15.210938 1.621094 -15.914062 C 1.621094 -15.941406 1.621094 -15.980469 1.621094 -16.011719 C 2.039062 -16.039062 2.214844 -16.128906 2.207031 -16.351562 C 2.195312 -16.65625 1.53125 -16.792969 0.691406 -16.792969 C -0.144531 -16.792969 -0.828125 -16.753906 -0.828125 -16.351562 C -0.828125 -16.097656 -0.507812 -16 -0.164062 -15.992188 C -0.164062 -15.960938 -0.175781 -15.921875 -0.175781 -15.894531 C -0.175781 -15.398438 -0.253906 -14.441406 -0.273438 -13.941406 Z M 2.34375 -18.433594 C 2.34375 -18.8125 1.757812 -19.144531 1.023438 -19.15625 C 0.292969 -19.164062 -0.3125 -18.863281 -0.3125 -18.472656 C -0.320312 -18.082031 0.261719 -17.757812 1.003906 -17.75 C 1.738281 -17.738281 2.332031 -18.042969 2.34375 -18.433594 Z M 2.34375 -18.433594 "/></g></g></g><g fill="#000000" fill-opacity="1"><g transform="translate(173.449887, 190.999996)"><g><path d="M 9.566406 -12.898438 C 9.664062 -13.191406 8.941406 -13.257812 8.855469 -12.984375 C 8.355469 -11.316406 7.566406 -9.871094 6.667969 -8.511719 C 5.90625 -9.351562 4.851562 -9.566406 3.847656 -9.332031 C 3.992188 -9.675781 4.128906 -10.027344 4.246094 -10.386719 C 4.824219 -12.027344 5.332031 -14.371094 4.648438 -16.070312 C 4.03125 -17.640625 2.214844 -17.621094 1.09375 -16.402344 C 0.605469 -15.863281 -0.371094 -14 -0.371094 -12.898438 C -0.371094 -12.585938 0.105469 -12.320312 0.253906 -12.449219 C 0.253906 -12.449219 1.328125 -14.722656 1.941406 -15.515625 C 2.097656 -15.71875 2.449219 -16.039062 2.695312 -16.089844 C 2.957031 -16.175781 3.152344 -15.660156 3.191406 -15.484375 C 3.347656 -14.800781 3.347656 -14.03125 3.289062 -13.316406 C 3.164062 -11.773438 2.65625 -10.320312 2.011719 -8.960938 C 1.707031 -8.308594 1.355469 -7.664062 0.996094 -7.039062 C 0.710938 -6.550781 0.195312 -6.042969 0.378906 -5.4375 C 0.507812 -5.066406 1.152344 -5.195312 1.367188 -5.300781 C 1.914062 -5.585938 2.292969 -6.25 2.625 -6.894531 C 2.996094 -7.285156 3.367188 -7.675781 3.835938 -8.023438 C 4.414062 -8.453125 4.871094 -8.511719 5.351562 -7.90625 C 5.527344 -7.695312 5.664062 -7.449219 5.761719 -7.195312 C 5.15625 -6.375 4.539062 -5.566406 3.933594 -4.746094 C 2.949219 -3.40625 2.039062 -2.019531 1.230469 -0.546875 C 0.808594 0.253906 0.398438 1.0625 0.0976562 1.921875 C -0.136719 2.539062 -0.390625 3.230469 -0.300781 3.914062 C -0.144531 5.214844 1.082031 5.117188 1.933594 4.765625 C 3.242188 4.207031 4.355469 3.054688 5.195312 1.804688 C 6.121094 0.398438 6.777344 -1.308594 7.1875 -3.007812 C 7.558594 -4.5 7.917969 -6.328125 7.175781 -7.761719 C 7.117188 -7.859375 7.070312 -7.957031 7.019531 -8.042969 C 8.035156 -9.539062 8.933594 -11.109375 9.566406 -12.898438 Z M 5.984375 -5.964844 C 6.113281 -3.191406 3.789062 3.75 1.082031 4.296875 C -0.488281 4.609375 0.867188 1.570312 1.171875 0.878906 C 2.285156 -1.621094 3.875 -3.796875 5.476562 -5.90625 C 5.632812 -6.113281 5.78125 -6.316406 5.925781 -6.523438 C 5.964844 -6.335938 5.984375 -6.152344 5.984375 -5.964844 Z M 5.984375 -5.964844 "/></g></g></g><g fill="#000000" fill-opacity="1"><g transform="translate(182.625988, 190.999996)"><g><path d="M 7.820312 -13.746094 C 7.625 -12.410156 7.292969 -11.121094 6.757812 -9.890625 C 6.503906 -9.304688 6.21875 -8.738281 5.859375 -8.210938 C 5.75 -8.035156 5.625 -7.867188 5.488281 -7.703125 C 5.449219 -7.828125 5.410156 -7.964844 5.398438 -8.101562 C 4.871094 -10.789062 5.117188 -13.601562 5.320312 -16.3125 C 5.351562 -16.742188 4.589844 -16.871094 4.03125 -16.722656 C 4.003906 -16.761719 3.984375 -16.792969 3.953125 -16.820312 C 3.269531 -17.574219 1.921875 -17.503906 1.171875 -16.898438 C 0.183594 -16.117188 -0.261719 -14.539062 -0.574219 -13.386719 C -0.9375 -12.039062 -1.101562 -10.660156 -1.023438 -9.273438 C -0.964844 -8.21875 -0.839844 -6.816406 0.292969 -6.367188 C 1.582031 -5.867188 2.402344 -6.835938 2.878906 -7.898438 C 3.054688 -8.289062 3.210938 -8.699219 3.339844 -9.117188 C 3.4375 -8.054688 3.71875 -6.960938 4.675781 -6.699219 C 6.25 -6.269531 6.765625 -7.714844 7.1875 -8.894531 C 7.742188 -10.445312 8.054688 -12.097656 8.25 -13.726562 C 8.257812 -13.816406 7.828125 -13.84375 7.820312 -13.746094 Z M 2.5 -11.226562 C 2.304688 -10.515625 2.097656 -9.800781 1.84375 -9.109375 C 1.738281 -8.824219 1.453125 -7.996094 1.113281 -7.519531 C 0.996094 -7.828125 0.925781 -8.230469 0.90625 -8.386719 C 0.820312 -8.914062 0.800781 -9.460938 0.800781 -9.996094 C 0.800781 -11.199219 0.976562 -12.410156 1.328125 -13.5625 C 1.484375 -14.089844 1.679688 -14.605469 1.914062 -15.113281 C 2.019531 -15.359375 2.136719 -15.601562 2.265625 -15.824219 C 2.34375 -15.960938 2.421875 -16.109375 2.519531 -16.253906 C 2.578125 -16.175781 2.644531 -16.097656 2.695312 -16.019531 C 2.839844 -15.816406 2.949219 -15.582031 3.074219 -15.367188 C 3.144531 -15.242188 3.203125 -15.113281 3.25 -14.988281 C 3.046875 -13.726562 2.851562 -12.457031 2.5 -11.226562 Z M 2.5 -11.226562 "/></g></g></g><g fill="#000000" fill-opacity="1"><g transform="translate(190.503769, 190.999996)"><g><path d="M 10.847656 -12.078125 C 11.277344 -12.125 11.304688 -12.625 10.757812 -12.605469 C 9.8125 -12.574219 8.875 -12.273438 8.003906 -11.804688 C 7.976562 -12.300781 7.925781 -12.808594 7.839844 -13.308594 C 7.625 -14.527344 7.011719 -15.582031 5.652344 -15.660156 C 4.140625 -15.746094 3.320312 -14.546875 2.664062 -13.355469 C 1.992188 -12.136719 1.582031 -10.789062 1.328125 -9.410156 C 1.308594 -10.132812 1.296875 -10.847656 1.308594 -11.570312 C 1.316406 -12.417969 1.335938 -13.269531 1.375 -14.117188 C 2.636719 -15.902344 3.542969 -18.011719 4.160156 -20.074219 C 4.480469 -21.195312 5.195312 -24.191406 4.648438 -24.886719 C 4.414062 -25.179688 3.964844 -25.226562 3.601562 -25.1875 C 2.664062 -25.070312 1.953125 -24.113281 1.53125 -23.363281 C 0.925781 -22.300781 0.59375 -21.050781 0.3125 -19.867188 C -0.320312 -17.113281 -0.488281 -14.214844 -0.496094 -11.402344 C -0.507812 -9.78125 -0.449219 -8.152344 -0.292969 -6.542969 C -0.164062 -5.253906 0.0078125 -3.679688 0.90625 -2.675781 C 1.140625 -2.410156 2.597656 -2.363281 2.460938 -2.910156 C 2.195312 -3.984375 2.265625 -5.136719 2.304688 -6.238281 C 2.34375 -7.382812 2.429688 -8.523438 2.644531 -9.65625 C 2.859375 -10.769531 3.210938 -11.851562 3.738281 -12.859375 C 3.984375 -13.347656 4.277344 -13.816406 4.636719 -14.226562 C 4.746094 -14.34375 5.203125 -14.871094 5.417969 -14.8125 C 5.507812 -14.792969 5.703125 -14.429688 5.75 -14.34375 C 6.269531 -13.414062 6.21875 -12.136719 6.210938 -11.101562 C 6.210938 -10.914062 6.199219 -10.71875 6.191406 -10.523438 C 5.710938 -10.105469 5.28125 -9.644531 4.910156 -9.175781 C 4.042969 -8.09375 3.308594 -6.667969 3.359375 -5.242188 C 3.398438 -3.972656 4.65625 -3.476562 5.730469 -4.082031 C 6.953125 -4.785156 7.371094 -6.816406 7.65625 -8.074219 C 7.867188 -9.011719 7.996094 -9.996094 8.015625 -10.984375 C 8.875 -11.550781 9.839844 -11.949219 10.847656 -12.078125 Z M 2.207031 -20.414062 C 2.488281 -21.644531 2.859375 -23.128906 3.632812 -24.144531 C 3.71875 -24.269531 3.808594 -24.359375 3.867188 -24.417969 C 3.886719 -24.28125 3.867188 -24.105469 3.867188 -23.878906 C 3.835938 -23.617188 3.828125 -23.355469 3.796875 -23.089844 C 3.738281 -22.398438 3.632812 -21.714844 3.496094 -21.03125 C 3.085938 -19.097656 2.34375 -17.378906 1.484375 -15.667969 C 1.621094 -17.269531 1.84375 -18.863281 2.207031 -20.414062 Z M 5.769531 -7.382812 C 5.632812 -6.785156 5.429688 -6.210938 5.242188 -5.632812 C 5.046875 -5.066406 4.6875 -4.707031 4.648438 -4.792969 C 4.199219 -5.605469 4.8125 -7.273438 5.339844 -8.160156 C 5.554688 -8.523438 5.808594 -8.882812 6.09375 -9.226562 C 6.015625 -8.609375 5.90625 -7.996094 5.769531 -7.382812 Z M 5.769531 -7.382812 "/></g></g></g><g fill="#000000" fill-opacity="1"><g transform="translate(201.261283, 190.999996)"><g><path d="M 3.964844 -12.097656 C 4.824219 -13.542969 6.269531 -18.128906 3.261719 -18.121094 C 0.59375 -18.109375 -0.476562 -14.390625 -0.59375 -12.292969 C -0.671875 -10.992188 -0.671875 -9.460938 -0.117188 -8.257812 C 0.457031 -7.03125 1.6875 -6.445312 3.007812 -6.542969 C 4.402344 -6.640625 5.59375 -7.925781 6.386719 -9.597656 C 7.011719 -10.894531 7.578125 -12.449219 7.820312 -13.492188 C 7.90625 -13.875 7.410156 -13.902344 7.34375 -13.503906 C 7.15625 -12.476562 6.289062 -10.523438 6.023438 -10.085938 C 5.410156 -9.078125 4.460938 -7.578125 3.203125 -7.625 C 1.757812 -7.683594 1.308594 -9.089844 1.210938 -10.515625 C 1.289062 -10.503906 1.367188 -10.484375 1.445312 -10.484375 C 2.585938 -10.386719 3.417969 -11.179688 3.964844 -12.097656 Z M 1.191406 -11.246094 C 1.191406 -12.039062 1.269531 -12.761719 1.308594 -13.179688 C 1.582031 -15.960938 2.898438 -17.671875 3.484375 -17.328125 C 3.953125 -17.066406 3.964844 -16.148438 3.953125 -15.699219 C 3.933594 -14.527344 3.574219 -13.355469 2.996094 -12.332031 C 2.695312 -11.804688 2.097656 -10.777344 1.316406 -11.167969 C 1.269531 -11.1875 1.230469 -11.21875 1.191406 -11.246094 Z M 1.191406 -11.246094 "/></g></g></g><g fill="#000000" fill-opacity="1"><g transform="translate(208.680258, 190.999996)"><g><path d="M 2.207031 -21.800781 C 2.304688 -21.792969 2.390625 -21.78125 2.488281 -21.773438 C 3.164062 -21.695312 3.75 -21.644531 4.265625 -21.617188 C 4.785156 -21.585938 5.117188 -21.636719 5.28125 -21.742188 C 5.410156 -21.851562 5.507812 -21.957031 5.554688 -22.066406 C 5.605469 -22.164062 5.632812 -22.261719 5.644531 -22.359375 C 5.652344 -22.445312 5.644531 -22.535156 5.625 -22.601562 C 5.59375 -22.671875 5.574219 -22.71875 5.546875 -22.769531 C 5.535156 -22.777344 5.527344 -22.789062 5.527344 -22.808594 C 5.515625 -22.808594 5.515625 -22.816406 5.515625 -22.816406 C 5.507812 -22.816406 5.507812 -22.816406 5.507812 -22.828125 C 5.097656 -22.554688 4.519531 -22.417969 3.777344 -22.417969 C 3.308594 -22.40625 2.832031 -22.425781 2.34375 -22.457031 C 2.421875 -22.769531 2.519531 -23.128906 2.625 -23.527344 C 2.820312 -24.242188 3.046875 -24.914062 3.300781 -25.550781 C 3.554688 -26.183594 3.808594 -26.613281 4.070312 -26.839844 C 4.109375 -26.867188 4.128906 -26.917969 4.140625 -26.964844 C 4.140625 -27.015625 4.121094 -27.054688 4.089844 -27.09375 C 3.964844 -27.210938 3.808594 -27.289062 3.621094 -27.328125 C 3.4375 -27.355469 3.242188 -27.347656 3.054688 -27.277344 C 2.773438 -27.160156 2.46875 -26.859375 2.128906 -26.371094 C 1.785156 -25.882812 1.40625 -25.042969 0.976562 -23.851562 C 0.828125 -23.429688 0.703125 -23.011719 0.574219 -22.59375 C 0.28125 -22.601562 0.0078125 -22.613281 -0.234375 -22.621094 C -0.730469 -22.621094 -1.074219 -22.542969 -1.25 -22.378906 C -1.296875 -22.308594 -1.335938 -22.222656 -1.347656 -22.132812 C -1.367188 -22.035156 -1.375 -21.949219 -1.367188 -21.878906 C -1.355469 -21.8125 -1.347656 -21.773438 -1.316406 -21.78125 C -0.964844 -21.929688 -0.4375 -21.988281 0.273438 -21.957031 C 0.3125 -21.957031 0.359375 -21.957031 0.398438 -21.949219 C 0.125 -20.882812 -0.0859375 -19.789062 -0.222656 -18.675781 C -0.457031 -16.871094 -0.554688 -15.105469 -0.515625 -13.367188 C -0.515625 -12.789062 -0.476562 -12.078125 -0.398438 -11.207031 C -0.332031 -10.339844 -0.175781 -9.46875 0.0664062 -8.621094 C 0.3125 -7.761719 0.683594 -7.070312 1.179688 -6.53125 C 1.679688 -5.996094 2.363281 -5.78125 3.210938 -5.878906 C 3.671875 -5.957031 4.050781 -6.289062 4.375 -6.863281 C 4.695312 -7.441406 4.96875 -8.160156 5.203125 -9.050781 C 5.4375 -9.929688 5.664062 -10.875 5.867188 -11.882812 C 5.945312 -12.242188 6.023438 -12.605469 6.101562 -12.964844 C 6.132812 -13.101562 6.121094 -13.210938 6.0625 -13.296875 C 6.003906 -13.375 5.9375 -13.40625 5.847656 -13.394531 C 5.761719 -13.386719 5.691406 -13.296875 5.644531 -13.152344 C 5.59375 -12.984375 5.507812 -12.671875 5.398438 -12.203125 C 5.261719 -11.578125 5.085938 -10.867188 4.871094 -10.054688 C 4.65625 -9.246094 4.414062 -8.53125 4.140625 -7.917969 C 3.855469 -7.304688 3.5625 -6.972656 3.242188 -6.921875 C 3.035156 -6.914062 2.890625 -6.960938 2.78125 -7.050781 C 2.675781 -7.136719 2.578125 -7.265625 2.480469 -7.429688 C 2.15625 -7.984375 1.921875 -8.582031 1.765625 -9.207031 C 1.445312 -10.59375 1.289062 -11.988281 1.316406 -13.40625 C 1.367188 -15.621094 1.433594 -17.015625 1.542969 -17.613281 C 1.707031 -19.019531 1.933594 -20.414062 2.207031 -21.800781 Z M 2.207031 -21.800781 "/></g></g></g><g fill="#000000" fill-opacity="1"><g transform="translate(214.273775, 190.999996)"><g><path d="M 10.152344 -13.191406 C 10.007812 -10.777344 9.519531 -8.53125 8.648438 -6.277344 C 8.453125 -5.75 8.257812 -5.203125 7.957031 -4.726562 C 7.761719 -4.394531 7.753906 -4.226562 7.527344 -4.628906 C 7.351562 -4.921875 7.265625 -5.273438 7.207031 -5.613281 C 6.980469 -6.777344 7.070312 -8.023438 7.15625 -9.207031 C 7.246094 -10.4375 7.390625 -11.675781 7.46875 -12.917969 C 7.527344 -13.804688 7.847656 -15.386719 7.136719 -16.109375 C 6.660156 -16.597656 5.703125 -16.644531 5.15625 -16.226562 C 4.460938 -15.667969 4.023438 -14.664062 3.710938 -13.855469 C 3.222656 -12.625 2.832031 -11.355469 2.546875 -10.054688 C 2.402344 -9.421875 2.304688 -8.765625 2.1875 -8.121094 C 2.148438 -7.90625 2.109375 -7.625 2.039062 -7.332031 C 2.03125 -7.402344 2.019531 -7.460938 2 -7.519531 C 1.875 -8.140625 1.757812 -8.777344 1.660156 -9.410156 C 1.472656 -10.640625 1.347656 -11.871094 1.277344 -13.113281 C 1.257812 -13.609375 1.238281 -14.117188 1.230469 -14.625 C 4.753906 -19.75 5.625 -25.960938 4.285156 -27.621094 C 3.769531 -28.253906 2.683594 -27.960938 2.097656 -27.523438 C 1.160156 -26.808594 -0.46875 -21.683594 -0.585938 -15.746094 C -0.644531 -12.828125 -0.398438 -9.820312 0.300781 -6.980469 C 0.351562 -6.796875 0.398438 -6.609375 0.507812 -6.453125 C 0.722656 -6.121094 1.511719 -5.378906 2.332031 -5.644531 C 3.269531 -5.9375 3.183594 -7.480469 3.28125 -8.269531 C 3.464844 -9.773438 3.769531 -11.246094 4.238281 -12.691406 C 4.433594 -13.277344 4.636719 -13.875 4.910156 -14.429688 C 5.027344 -14.695312 5.164062 -14.949219 5.320312 -15.183594 C 5.390625 -15.289062 5.566406 -15.4375 5.671875 -15.5625 C 5.75 -12.730469 5.203125 -9.929688 5.261719 -7.089844 C 5.28125 -5.984375 5.332031 -4.1875 6.492188 -3.613281 C 7.558594 -3.085938 8.6875 -3.601562 9.078125 -4.648438 C 10.085938 -7.324219 10.574219 -10.347656 10.679688 -13.199219 C 10.691406 -13.386719 10.164062 -13.386719 10.152344 -13.191406 Z M 1.621094 -20.511719 C 1.726562 -21.226562 3.007812 -27.425781 3.574219 -27.179688 C 3.964844 -26.996094 4.023438 -25.824219 4.050781 -25.441406 C 4.101562 -24.828125 4.042969 -24.222656 3.953125 -23.605469 C 3.777344 -22.398438 3.476562 -21.226562 3.105469 -20.0625 C 2.605469 -18.480469 1.972656 -16.949219 1.230469 -15.464844 C 1.25 -17.152344 1.375 -18.84375 1.621094 -20.511719 Z M 1.621094 -20.511719 "/></g></g></g><g fill="#000000" fill-opacity="1"><g transform="translate(229.541246, 190.999996)"><g><path d="M 2.207031 -21.800781 C 2.304688 -21.792969 2.390625 -21.78125 2.488281 -21.773438 C 3.164062 -21.695312 3.75 -21.644531 4.265625 -21.617188 C 4.785156 -21.585938 5.117188 -21.636719 5.28125 -21.742188 C 5.410156 -21.851562 5.507812 -21.957031 5.554688 -22.066406 C 5.605469 -22.164062 5.632812 -22.261719 5.644531 -22.359375 C 5.652344 -22.445312 5.644531 -22.535156 5.625 -22.601562 C 5.59375 -22.671875 5.574219 -22.71875 5.546875 -22.769531 C 5.535156 -22.777344 5.527344 -22.789062 5.527344 -22.808594 C 5.515625 -22.808594 5.515625 -22.816406 5.515625 -22.816406 C 5.507812 -22.816406 5.507812 -22.816406 5.507812 -22.828125 C 5.097656 -22.554688 4.519531 -22.417969 3.777344 -22.417969 C 3.308594 -22.40625 2.832031 -22.425781 2.34375 -22.457031 C 2.421875 -22.769531 2.519531 -23.128906 2.625 -23.527344 C 2.820312 -24.242188 3.046875 -24.914062 3.300781 -25.550781 C 3.554688 -26.183594 3.808594 -26.613281 4.070312 -26.839844 C 4.109375 -26.867188 4.128906 -26.917969 4.140625 -26.964844 C 4.140625 -27.015625 4.121094 -27.054688 4.089844 -27.09375 C 3.964844 -27.210938 3.808594 -27.289062 3.621094 -27.328125 C 3.4375 -27.355469 3.242188 -27.347656 3.054688 -27.277344 C 2.773438 -27.160156 2.46875 -26.859375 2.128906 -26.371094 C 1.785156 -25.882812 1.40625 -25.042969 0.976562 -23.851562 C 0.828125 -23.429688 0.703125 -23.011719 0.574219 -22.59375 C 0.28125 -22.601562 0.0078125 -22.613281 -0.234375 -22.621094 C -0.730469 -22.621094 -1.074219 -22.542969 -1.25 -22.378906 C -1.296875 -22.308594 -1.335938 -22.222656 -1.347656 -22.132812 C -1.367188 -22.035156 -1.375 -21.949219 -1.367188 -21.878906 C -1.355469 -21.8125 -1.347656 -21.773438 -1.316406 -21.78125 C -0.964844 -21.929688 -0.4375 -21.988281 0.273438 -21.957031 C 0.3125 -21.957031 0.359375 -21.957031 0.398438 -21.949219 C 0.125 -20.882812 -0.0859375 -19.789062 -0.222656 -18.675781 C -0.457031 -16.871094 -0.554688 -15.105469 -0.515625 -13.367188 C -0.515625 -12.789062 -0.476562 -12.078125 -0.398438 -11.207031 C -0.332031 -10.339844 -0.175781 -9.46875 0.0664062 -8.621094 C 0.3125 -7.761719 0.683594 -7.070312 1.179688 -6.53125 C 1.679688 -5.996094 2.363281 -5.78125 3.210938 -5.878906 C 3.671875 -5.957031 4.050781 -6.289062 4.375 -6.863281 C 4.695312 -7.441406 4.96875 -8.160156 5.203125 -9.050781 C 5.4375 -9.929688 5.664062 -10.875 5.867188 -11.882812 C 5.945312 -12.242188 6.023438 -12.605469 6.101562 -12.964844 C 6.132812 -13.101562 6.121094 -13.210938 6.0625 -13.296875 C 6.003906 -13.375 5.9375 -13.40625 5.847656 -13.394531 C 5.761719 -13.386719 5.691406 -13.296875 5.644531 -13.152344 C 5.59375 -12.984375 5.507812 -12.671875 5.398438 -12.203125 C 5.261719 -11.578125 5.085938 -10.867188 4.871094 -10.054688 C 4.65625 -9.246094 4.414062 -8.53125 4.140625 -7.917969 C 3.855469 -7.304688 3.5625 -6.972656 3.242188 -6.921875 C 3.035156 -6.914062 2.890625 -6.960938 2.78125 -7.050781 C 2.675781 -7.136719 2.578125 -7.265625 2.480469 -7.429688 C 2.15625 -7.984375 1.921875 -8.582031 1.765625 -9.207031 C 1.445312 -10.59375 1.289062 -11.988281 1.316406 -13.40625 C 1.367188 -15.621094 1.433594 -17.015625 1.542969 -17.613281 C 1.707031 -19.019531 1.933594 -20.414062 2.207031 -21.800781 Z M 2.207031 -21.800781 "/></g></g></g><g fill="#000000" fill-opacity="1"><g transform="translate(235.134763, 190.999996)"><g><path d="M -0.273438 -13.941406 C -0.300781 -12.945312 -0.339844 -11.949219 -0.371094 -10.964844 C -0.417969 -9.519531 -0.554688 -7.371094 0.742188 -6.375 C 1.0625 -6.140625 1.433594 -6.015625 1.804688 -6.015625 C 4.089844 -6.015625 4.890625 -10.457031 5.261719 -12.554688 C 5.292969 -12.769531 4.882812 -12.808594 4.851562 -12.605469 C 4.617188 -11.207031 3.632812 -6.855469 2.324219 -6.882812 C 1.816406 -6.894531 1.601562 -8.132812 1.542969 -8.492188 C 1.316406 -9.851562 1.464844 -11.265625 1.511719 -12.632812 C 1.53125 -13.328125 1.648438 -15.210938 1.621094 -15.914062 C 1.621094 -15.941406 1.621094 -15.980469 1.621094 -16.011719 C 2.039062 -16.039062 2.214844 -16.128906 2.207031 -16.351562 C 2.195312 -16.65625 1.53125 -16.792969 0.691406 -16.792969 C -0.144531 -16.792969 -0.828125 -16.753906 -0.828125 -16.351562 C -0.828125 -16.097656 -0.507812 -16 -0.164062 -15.992188 C -0.164062 -15.960938 -0.175781 -15.921875 -0.175781 -15.894531 C -0.175781 -15.398438 -0.253906 -14.441406 -0.273438 -13.941406 Z M 2.34375 -18.433594 C 2.34375 -18.8125 1.757812 -19.144531 1.023438 -19.15625 C 0.292969 -19.164062 -0.3125 -18.863281 -0.3125 -18.472656 C -0.320312 -18.082031 0.261719 -17.757812 1.003906 -17.75 C 1.738281 -17.738281 2.332031 -18.042969 2.34375 -18.433594 Z M 2.34375 -18.433594 "/></g></g></g><g fill="#000000" fill-opacity="1"><g transform="translate(240.103524, 190.999996)"><g><path d="M 3.964844 -12.097656 C 4.824219 -13.542969 6.269531 -18.128906 3.261719 -18.121094 C 0.59375 -18.109375 -0.476562 -14.390625 -0.59375 -12.292969 C -0.671875 -10.992188 -0.671875 -9.460938 -0.117188 -8.257812 C 0.457031 -7.03125 1.6875 -6.445312 3.007812 -6.542969 C 4.402344 -6.640625 5.59375 -7.925781 6.386719 -9.597656 C 7.011719 -10.894531 7.578125 -12.449219 7.820312 -13.492188 C 7.90625 -13.875 7.410156 -13.902344 7.34375 -13.503906 C 7.15625 -12.476562 6.289062 -10.523438 6.023438 -10.085938 C 5.410156 -9.078125 4.460938 -7.578125 3.203125 -7.625 C 1.757812 -7.683594 1.308594 -9.089844 1.210938 -10.515625 C 1.289062 -10.503906 1.367188 -10.484375 1.445312 -10.484375 C 2.585938 -10.386719 3.417969 -11.179688 3.964844 -12.097656 Z M 1.191406 -11.246094 C 1.191406 -12.039062 1.269531 -12.761719 1.308594 -13.179688 C 1.582031 -15.960938 2.898438 -17.671875 3.484375 -17.328125 C 3.953125 -17.066406 3.964844 -16.148438 3.953125 -15.699219 C 3.933594 -14.527344 3.574219 -13.355469 2.996094 -12.332031 C 2.695312 -11.804688 2.097656 -10.777344 1.316406 -11.167969 C 1.269531 -11.1875 1.230469 -11.21875 1.191406 -11.246094 Z M 1.191406 -11.246094 "/></g></g></g><g fill="#000000" fill-opacity="1"><g transform="translate(247.522499, 190.999996)"><g><path d="M 2.207031 -21.800781 C 2.304688 -21.792969 2.390625 -21.78125 2.488281 -21.773438 C 3.164062 -21.695312 3.75 -21.644531 4.265625 -21.617188 C 4.785156 -21.585938 5.117188 -21.636719 5.28125 -21.742188 C 5.410156 -21.851562 5.507812 -21.957031 5.554688 -22.066406 C 5.605469 -22.164062 5.632812 -22.261719 5.644531 -22.359375 C 5.652344 -22.445312 5.644531 -22.535156 5.625 -22.601562 C 5.59375 -22.671875 5.574219 -22.71875 5.546875 -22.769531 C 5.535156 -22.777344 5.527344 -22.789062 5.527344 -22.808594 C 5.515625 -22.808594 5.515625 -22.816406 5.515625 -22.816406 C 5.507812 -22.816406 5.507812 -22.816406 5.507812 -22.828125 C 5.097656 -22.554688 4.519531 -22.417969 3.777344 -22.417969 C 3.308594 -22.40625 2.832031 -22.425781 2.34375 -22.457031 C 2.421875 -22.769531 2.519531 -23.128906 2.625 -23.527344 C 2.820312 -24.242188 3.046875 -24.914062 3.300781 -25.550781 C 3.554688 -26.183594 3.808594 -26.613281 4.070312 -26.839844 C 4.109375 -26.867188 4.128906 -26.917969 4.140625 -26.964844 C 4.140625 -27.015625 4.121094 -27.054688 4.089844 -27.09375 C 3.964844 -27.210938 3.808594 -27.289062 3.621094 -27.328125 C 3.4375 -27.355469 3.242188 -27.347656 3.054688 -27.277344 C 2.773438 -27.160156 2.46875 -26.859375 2.128906 -26.371094 C 1.785156 -25.882812 1.40625 -25.042969 0.976562 -23.851562 C 0.828125 -23.429688 0.703125 -23.011719 0.574219 -22.59375 C 0.28125 -22.601562 0.0078125 -22.613281 -0.234375 -22.621094 C -0.730469 -22.621094 -1.074219 -22.542969 -1.25 -22.378906 C -1.296875 -22.308594 -1.335938 -22.222656 -1.347656 -22.132812 C -1.367188 -22.035156 -1.375 -21.949219 -1.367188 -21.878906 C -1.355469 -21.8125 -1.347656 -21.773438 -1.316406 -21.78125 C -0.964844 -21.929688 -0.4375 -21.988281 0.273438 -21.957031 C 0.3125 -21.957031 0.359375 -21.957031 0.398438 -21.949219 C 0.125 -20.882812 -0.0859375 -19.789062 -0.222656 -18.675781 C -0.457031 -16.871094 -0.554688 -15.105469 -0.515625 -13.367188 C -0.515625 -12.789062 -0.476562 -12.078125 -0.398438 -11.207031 C -0.332031 -10.339844 -0.175781 -9.46875 0.0664062 -8.621094 C 0.3125 -7.761719 0.683594 -7.070312 1.179688 -6.53125 C 1.679688 -5.996094 2.363281 -5.78125 3.210938 -5.878906 C 3.671875 -5.957031 4.050781 -6.289062 4.375 -6.863281 C 4.695312 -7.441406 4.96875 -8.160156 5.203125 -9.050781 C 5.4375 -9.929688 5.664062 -10.875 5.867188 -11.882812 C 5.945312 -12.242188 6.023438 -12.605469 6.101562 -12.964844 C 6.132812 -13.101562 6.121094 -13.210938 6.0625 -13.296875 C 6.003906 -13.375 5.9375 -13.40625 5.847656 -13.394531 C 5.761719 -13.386719 5.691406 -13.296875 5.644531 -13.152344 C 5.59375 -12.984375 5.507812 -12.671875 5.398438 -12.203125 C 5.261719 -11.578125 5.085938 -10.867188 4.871094 -10.054688 C 4.65625 -9.246094 4.414062 -8.53125 4.140625 -7.917969 C 3.855469 -7.304688 3.5625 -6.972656 3.242188 -6.921875 C 3.035156 -6.914062 2.890625 -6.960938 2.78125 -7.050781 C 2.675781 -7.136719 2.578125 -7.265625 2.480469 -7.429688 C 2.15625 -7.984375 1.921875 -8.582031 1.765625 -9.207031 C 1.445312 -10.59375 1.289062 -11.988281 1.316406 -13.40625 C 1.367188 -15.621094 1.433594 -17.015625 1.542969 -17.613281 C 1.707031 -19.019531 1.933594 -20.414062 2.207031 -21.800781 Z M 2.207031 -21.800781 "/></g></g></g><g fill="#000000" fill-opacity="1"><g transform="translate(253.116016, 190.999996)"><g><path d="M 9.566406 -12.898438 C 9.664062 -13.191406 8.941406 -13.257812 8.855469 -12.984375 C 8.355469 -11.316406 7.566406 -9.871094 6.667969 -8.511719 C 5.90625 -9.351562 4.851562 -9.566406 3.847656 -9.332031 C 3.992188 -9.675781 4.128906 -10.027344 4.246094 -10.386719 C 4.824219 -12.027344 5.332031 -14.371094 4.648438 -16.070312 C 4.03125 -17.640625 2.214844 -17.621094 1.09375 -16.402344 C 0.605469 -15.863281 -0.371094 -14 -0.371094 -12.898438 C -0.371094 -12.585938 0.105469 -12.320312 0.253906 -12.449219 C 0.253906 -12.449219 1.328125 -14.722656 1.941406 -15.515625 C 2.097656 -15.71875 2.449219 -16.039062 2.695312 -16.089844 C 2.957031 -16.175781 3.152344 -15.660156 3.191406 -15.484375 C 3.347656 -14.800781 3.347656 -14.03125 3.289062 -13.316406 C 3.164062 -11.773438 2.65625 -10.320312 2.011719 -8.960938 C 1.707031 -8.308594 1.355469 -7.664062 0.996094 -7.039062 C 0.710938 -6.550781 0.195312 -6.042969 0.378906 -5.4375 C 0.507812 -5.066406 1.152344 -5.195312 1.367188 -5.300781 C 1.914062 -5.585938 2.292969 -6.25 2.625 -6.894531 C 2.996094 -7.285156 3.367188 -7.675781 3.835938 -8.023438 C 4.414062 -8.453125 4.871094 -8.511719 5.351562 -7.90625 C 5.527344 -7.695312 5.664062 -7.449219 5.761719 -7.195312 C 5.15625 -6.375 4.539062 -5.566406 3.933594 -4.746094 C 2.949219 -3.40625 2.039062 -2.019531 1.230469 -0.546875 C 0.808594 0.253906 0.398438 1.0625 0.0976562 1.921875 C -0.136719 2.539062 -0.390625 3.230469 -0.300781 3.914062 C -0.144531 5.214844 1.082031 5.117188 1.933594 4.765625 C 3.242188 4.207031 4.355469 3.054688 5.195312 1.804688 C 6.121094 0.398438 6.777344 -1.308594 7.1875 -3.007812 C 7.558594 -4.5 7.917969 -6.328125 7.175781 -7.761719 C 7.117188 -7.859375 7.070312 -7.957031 7.019531 -8.042969 C 8.035156 -9.539062 8.933594 -11.109375 9.566406 -12.898438 Z M 5.984375 -5.964844 C 6.113281 -3.191406 3.789062 3.75 1.082031 4.296875 C -0.488281 4.609375 0.867188 1.570312 1.171875 0.878906 C 2.285156 -1.621094 3.875 -3.796875 5.476562 -5.90625 C 5.632812 -6.113281 5.78125 -6.316406 5.925781 -6.523438 C 5.964844 -6.335938 5.984375 -6.152344 5.984375 -5.964844 Z M 5.984375 -5.964844 "/></g></g></g></svg>